<svg version="1.1" id="Layer_1" xmlns="http://www.w3.org/2000/svg" xmlns:xlink="http://www.w3.org/1999/xlink" x="0px" y="0px"
	 width="100%" viewBox="0 0 3258 3334" enable-background="new 0 0 3258 3334" xml:space="preserve">
<path fill="#000000" opacity="1.000000" stroke="none" 
	d="
M3260.000000,1502.000000 
	C3260.000000,1561.376221 3260.000000,1620.752441 3259.308594,1681.550781 
	C3258.491943,1690.021240 3258.367188,1697.069580 3258.129395,1705.040039 
	C3256.789795,1727.195801 3255.996338,1748.465210 3254.227295,1769.653320 
	C3252.023438,1796.053345 3249.144531,1822.400024 3246.324951,1848.744873 
	C3241.243652,1896.221191 3233.354248,1943.263184 3224.253418,1990.119873 
	C3211.205566,2057.300293 3194.574463,2123.574463 3173.845947,2188.790283 
	C3143.887451,2283.045654 3106.394043,2374.163330 3060.021484,2461.603760 
	C3029.441895,2519.264404 2995.563965,2574.864258 2957.976807,2628.209229 
	C2907.486572,2699.866943 2851.122070,2766.598877 2788.936523,2828.350098 
	C2769.595703,2847.555664 2749.400391,2865.925049 2729.170410,2884.205811 
	C2678.532715,2929.965088 2624.551514,2971.493408 2568.095703,3009.793945 
	C2521.286621,3041.550537 2472.821289,3070.578613 2423.009277,3097.407471 
	C2370.585449,3125.643066 2316.762939,3150.878906 2261.767822,3173.624023 
	C2207.424561,3196.099609 2152.106201,3215.904785 2095.904297,3233.239746 
	C2045.454590,3248.800781 1994.572021,3262.816895 1943.013672,3274.133057 
	C1901.577393,3283.227783 1859.887451,3291.178711 1818.259888,3299.381836 
	C1807.345947,3301.532471 1796.245239,3302.734619 1785.062866,3304.397461 
	C1784.084839,3294.832764 1783.068237,3286.308105 1782.365967,3277.757812 
	C1780.168457,3251.002441 1778.078369,3224.238525 1775.967651,3197.476074 
	C1773.414062,3165.101807 1770.821411,3132.730225 1768.363647,3100.348633 
	C1766.908447,3081.176025 1765.603760,3061.991211 1764.367920,3042.802979 
	C1762.300537,3010.701172 1760.204102,2978.599854 1758.381104,2946.483643 
	C1756.839111,2919.313477 1755.645874,2892.123535 1754.346069,2864.939941 
	C1754.012451,2857.962402 1753.991211,2850.969238 1753.600098,2843.995850 
	C1752.579224,2825.792236 1751.172485,2807.606201 1750.402466,2789.393066 
	C1749.447754,2766.814209 1749.078003,2744.211426 1748.259521,2721.626221 
	C1747.838989,2710.026855 1746.885498,2698.447754 1746.374146,2686.850586 
	C1746.022583,2678.873779 1745.649536,2670.863525 1746.047119,2662.906006 
	C1746.195435,2659.937256 1747.755127,2656.061523 1750.002441,2654.402344 
	C1753.440674,2651.863525 1756.995972,2654.750732 1759.668091,2657.236328 
	C1762.326172,2659.708496 1764.346436,2662.856201 1766.937866,2665.412109 
	C1785.195557,2683.419922 1803.121216,2701.794434 1821.991089,2719.139648 
	C1833.197266,2729.440430 1845.527832,2738.663330 1858.079468,2747.316895 
	C1872.609009,2757.334473 1888.693237,2761.538574 1906.333008,2755.837158 
	C1924.025635,2750.118652 1941.954590,2745.089111 1959.485352,2738.920166 
	C2001.142700,2724.261475 2042.815186,2709.607910 2084.112061,2693.976074 
	C2111.106689,2683.757812 2137.569824,2672.093018 2164.011475,2660.485352 
	C2170.567139,2657.607178 2176.684326,2653.051514 2181.981689,2648.160400 
	C2188.476562,2642.163330 2187.724854,2636.812744 2180.331787,2631.859375 
	C2175.402832,2628.557129 2169.995361,2625.843506 2164.538086,2623.474365 
	C2112.761475,2600.996094 2060.851807,2578.822754 2009.128052,2556.224121 
	C1921.801270,2518.070557 1834.608032,2479.611572 1747.270874,2441.481934 
	C1739.614014,2438.139160 1736.218750,2433.623779 1736.150391,2424.998535 
	C1735.971313,2402.406982 1734.949951,2379.819824 1734.111450,2357.236572 
	C1733.708374,2346.381836 1737.609985,2343.399170 1747.913208,2347.099121 
	C1748.850586,2347.435547 1749.786865,2347.777100 1750.711548,2348.146973 
	C1792.017334,2364.683838 1833.366089,2381.114990 1874.617432,2397.787109 
	C1957.741089,2431.382080 2040.756958,2465.245361 2123.937012,2498.700195 
	C2149.798096,2509.101562 2175.825684,2519.184570 2202.183105,2528.229980 
	C2224.957764,2536.045654 2248.222900,2537.439697 2271.464111,2528.604980 
	C2291.404053,2521.025146 2308.875977,2509.687744 2323.726562,2494.622559 
	C2341.703613,2476.385498 2359.744873,2458.118652 2376.430664,2438.722656 
	C2402.635498,2408.261719 2427.842041,2376.936279 2453.194824,2345.751953 
	C2457.985840,2339.858643 2461.945312,2333.155762 2465.469727,2326.399414 
	C2470.085693,2317.551514 2467.905029,2312.954102 2458.528564,2309.762939 
	C2456.024902,2308.911133 2453.440674,2308.239746 2450.846924,2307.717041 
	C2423.866211,2302.280762 2396.859131,2296.974121 2369.891602,2291.473633 
	C2296.139893,2276.431152 2222.420654,2261.227539 2148.655029,2246.252930 
	C2094.056641,2235.168945 2039.399536,2224.373291 1984.779175,2213.397217 
	C1915.854980,2199.546631 1846.945190,2185.625000 1778.020386,2171.777588 
	C1764.043945,2168.969238 1750.024902,2166.373535 1736.033081,2163.641113 
	C1728.737549,2162.216064 1726.649780,2160.506104 1726.399780,2154.444092 
	C1725.373047,2129.541016 1724.761963,2104.619629 1723.550659,2079.726318 
	C1723.158569,2071.667969 1728.183105,2069.544189 1734.098633,2070.524658 
	C1750.111450,2073.179199 1766.136841,2075.761963 1782.128052,2078.541748 
	C1835.013062,2087.734863 1887.876099,2097.052979 1940.764404,2106.226562 
	C1987.779419,2114.381104 2034.829956,2122.331299 2081.840576,2130.511475 
	C2126.891357,2138.350098 2171.911377,2146.367920 2216.944824,2154.307129 
	C2245.983154,2159.426514 2274.983887,2164.774658 2304.072266,2169.593506 
	C2326.610596,2173.327393 2349.189697,2176.999023 2371.876221,2179.604736 
	C2396.966797,2182.486816 2416.683838,2172.557373 2432.927734,2153.166748 
	C2450.890137,2131.724854 2463.496338,2107.235107 2475.795654,2082.590332 
	C2499.544922,2035.002319 2522.486572,1987.010132 2545.628662,1939.120483 
	C2547.623779,1934.991699 2548.963623,1930.458984 2549.990967,1925.972656 
	C2551.212646,1920.637207 2548.331543,1916.940308 2543.687500,1914.833984 
	C2541.009521,1913.619263 2538.012451,1912.751221 2535.091309,1912.494385 
	C2524.851562,1911.594116 2514.587891,1910.926636 2504.322998,1910.355713 
	C2486.754150,1909.378418 2469.164551,1908.741455 2451.607666,1907.595825 
	C2427.471924,1906.020752 2403.368896,1903.947754 2379.232910,1902.378174 
	C2353.409180,1900.698975 2327.563477,1899.361816 2301.727783,1897.864990 
	C2281.533936,1896.695068 2261.343018,1895.469482 2241.146729,1894.343506 
	C2223.910400,1893.382690 2206.657715,1892.693237 2189.430908,1891.588013 
	C2164.297852,1889.975464 2139.187256,1888.014526 2114.056396,1886.365234 
	C2099.485107,1885.408936 2084.887451,1884.851318 2070.310547,1883.971558 
	C2051.449951,1882.833374 2032.604980,1881.424927 2013.740112,1880.369385 
	C1994.842651,1879.312134 1975.915649,1878.758911 1957.025269,1877.599976 
	C1931.556152,1876.037476 1906.113892,1874.041748 1880.651978,1872.354370 
	C1859.143677,1870.928711 1837.629150,1869.580322 1816.107544,1868.373169 
	C1786.615479,1866.718872 1757.118774,1865.134033 1727.614380,1863.719849 
	C1716.408447,1863.182739 1714.217285,1861.610718 1713.747192,1850.421021 
	C1712.882324,1829.838501 1712.197754,1809.245483 1711.722534,1788.650269 
	C1711.451050,1776.875610 1713.577148,1775.106567 1724.829590,1775.736328 
	C1737.751343,1776.459717 1750.676636,1777.167847 1763.609253,1777.635376 
	C1785.195312,1778.415649 1806.787964,1779.011108 1828.378540,1779.662354 
	C1850.968140,1780.343750 1873.558838,1780.992065 1896.148560,1781.668579 
	C1918.072388,1782.324951 1939.994873,1783.018433 1961.919067,1783.660034 
	C1985.508423,1784.350464 2009.099365,1784.985352 2032.688843,1785.670776 
	C2054.946289,1786.317505 2077.201660,1787.024780 2099.459473,1787.656982 
	C2124.048584,1788.355469 2148.639160,1788.996216 2173.229248,1789.667725 
	C2197.485840,1790.330078 2221.740479,1791.100586 2245.999756,1791.641113 
	C2280.253906,1792.404297 2314.511475,1793.045288 2348.769043,1793.639038 
	C2359.098877,1793.817993 2369.441406,1793.899048 2379.765381,1793.591553 
	C2387.702637,1793.355347 2395.679688,1792.859253 2403.531982,1791.731934 
	C2416.804443,1789.826294 2428.384033,1784.200806 2436.760742,1773.437866 
	C2441.029297,1767.953003 2444.645752,1761.921021 2448.191650,1755.920654 
	C2458.843750,1737.895020 2463.650635,1717.794556 2467.685303,1697.604126 
	C2474.699219,1662.507324 2481.437500,1627.343628 2487.495850,1592.071289 
	C2491.755859,1567.269409 2494.951660,1542.273071 2498.112793,1517.299194 
	C2499.530518,1506.100220 2493.956787,1501.501953 2482.709229,1503.299438 
	C2455.221924,1507.692383 2427.756592,1512.229736 2400.242432,1516.447754 
	C2373.072021,1520.613159 2345.866455,1524.553223 2318.651367,1528.419556 
	C2282.267334,1533.588379 2245.884521,1538.780518 2209.453857,1543.605103 
	C2180.230225,1547.475220 2150.930664,1550.765991 2121.675049,1554.397095 
	C2070.090820,1560.799561 2018.521240,1567.323242 1966.932007,1573.686035 
	C1928.481689,1578.428101 1890.017578,1583.059326 1851.545898,1587.624634 
	C1806.173584,1593.008911 1760.787354,1598.276123 1715.405029,1603.575928 
	C1707.924438,1604.449585 1704.804199,1602.233643 1704.401978,1594.635986 
	C1703.295654,1573.737671 1702.403809,1552.824585 1701.743164,1531.907349 
	C1701.490845,1523.916870 1702.646240,1522.920898 1710.625000,1521.684937 
	C1761.026001,1513.876709 1811.419800,1506.021362 1861.843872,1498.364258 
	C1903.764893,1491.998291 1945.743652,1486.011719 1987.661377,1479.623901 
	C2037.755493,1471.990356 2087.815430,1464.132568 2137.883545,1456.327759 
	C2186.001221,1448.826904 2234.152832,1441.526245 2282.194580,1433.564697 
	C2294.883545,1431.461792 2307.393555,1427.781616 2319.678223,1423.861572 
	C2335.110107,1418.937256 2346.064209,1408.405396 2351.928955,1393.315552 
	C2355.880859,1383.147583 2360.273926,1372.762451 2361.760254,1362.096802 
	C2366.419922,1328.661377 2369.968994,1295.065674 2373.593506,1261.493774 
	C2375.335449,1245.357666 2376.450195,1229.146484 2377.518066,1212.947632 
	C2378.108398,1203.992188 2378.487061,1194.971069 2378.095215,1186.017456 
	C2377.717529,1177.383667 2374.135986,1174.997314 2365.617432,1176.369751 
	C2363.668457,1176.683716 2361.779053,1177.381348 2359.869873,1177.928711 
	C2340.729248,1183.417114 2321.624756,1189.033081 2302.445312,1194.382202 
	C2208.791504,1220.502563 2115.169678,1246.741211 2021.431396,1272.555054 
	C1966.084229,1287.796509 1910.569214,1302.431519 1855.076538,1317.138794 
	C1818.506348,1326.830933 1781.847778,1336.190308 1745.215698,1345.647949 
	C1732.360718,1348.966675 1719.511353,1352.329468 1706.573853,1355.299683 
	C1698.548706,1357.142334 1694.664917,1354.301880 1694.373413,1346.847168 
	C1693.607422,1327.260132 1692.871582,1307.670044 1692.394653,1288.074341 
	C1692.167847,1278.753296 1692.964111,1278.094482 1701.728760,1275.762451 
	C1719.364990,1271.069580 1737.005981,1266.394287 1754.626099,1261.641479 
	C1821.267700,1243.666016 1887.920654,1225.731445 1954.532837,1207.647217 
	C2008.656860,1192.953369 2062.815918,1178.375854 2116.780518,1163.114380 
	C2138.456787,1156.984375 2160.121582,1150.310913 2180.952637,1141.824707 
	C2207.062500,1131.187744 2225.258301,1112.102783 2229.808594,1083.314819 
	C2232.904541,1063.728149 2234.104004,1043.815308 2235.550049,1024.004272 
	C2236.421143,1012.068359 2235.486816,999.991882 2236.514648,988.077881 
	C2238.492432,965.148621 2238.306641,942.291443 2235.903809,919.454651 
	C2234.649414,907.533997 2230.999268,905.528320 2220.167969,909.889221 
	C2218.013428,910.756592 2215.927246,911.798096 2213.832275,912.806946 
	C2205.151123,916.987427 2196.623779,921.524536 2187.779297,925.323730 
	C2127.983643,951.008484 2068.460693,977.371338 2008.193604,1001.903687 
	C1935.927979,1031.320190 1863.063599,1059.271851 1790.347900,1087.573853 
	C1759.715698,1099.496338 1728.821045,1110.747070 1698.000488,1122.181641 
	C1690.017700,1125.143188 1686.071655,1122.349609 1685.682251,1113.902100 
	C1685.513794,1110.248535 1685.541382,1106.586548 1685.413940,1102.930664 
	C1684.846924,1086.664551 1684.301758,1070.397461 1683.640137,1054.135010 
	C1683.481934,1050.249634 1685.194092,1047.823608 1688.619385,1046.406250 
	C1693.837646,1044.247070 1699.078003,1042.141602 1704.300293,1039.992065 
	C1807.774536,997.399414 1911.290649,954.907715 2014.678955,912.107361 
	C2032.136353,904.880432 2049.397461,896.995056 2066.102783,888.187622 
	C2082.873047,879.345886 2092.539062,864.738770 2096.500000,845.950500 
	C2100.362549,827.629333 2100.608154,809.056763 2101.449951,790.563293 
	C2102.097412,776.338074 2100.978516,762.013550 2100.277100,747.751343 
	C2099.641602,734.831970 2098.601807,721.929443 2097.541260,709.035828 
	C2097.189453,704.756592 2096.476562,700.466858 2095.476562,696.290222 
	C2093.820312,689.373108 2090.659668,687.686768 2084.007080,690.165955 
	C2080.286133,691.552551 2076.677490,693.332336 2073.198242,695.260193 
	C2041.225830,712.977295 2009.446167,731.048340 1977.311401,748.464661 
	C1932.898804,772.535522 1888.244873,796.161804 1843.659180,819.912476 
	C1821.655762,831.633728 1799.613159,843.283081 1777.516846,854.828247 
	C1748.642822,869.914673 1719.748901,884.964478 1690.753540,899.815430 
	C1681.927246,904.336182 1676.836304,901.123291 1676.381226,891.054443 
	C1675.571411,873.141479 1675.155884,855.210022 1674.254028,837.302490 
	C1673.943237,831.133240 1676.233398,827.514954 1681.745728,824.720886 
	C1696.266602,817.360168 1710.549194,809.527588 1724.889404,801.813538 
	C1777.572632,773.473450 1830.270752,745.160889 1882.898804,716.718872 
	C1902.477173,706.138123 1922.518677,696.273376 1939.840332,681.982605 
	C1955.143311,669.357361 1967.578979,654.905762 1968.194946,633.765625 
	C1969.251343,597.504883 1967.652954,561.325378 1963.361816,525.309753 
	C1962.470581,517.831177 1960.383301,510.327576 1957.691162,503.276947 
	C1954.875488,495.902740 1950.305786,494.523499 1943.415161,498.144257 
	C1939.036865,500.444855 1934.983276,503.443542 1931.023560,506.445099 
	C1921.754272,513.471680 1912.696167,520.776733 1903.434692,527.814026 
	C1842.493774,574.121094 1779.442993,617.436951 1715.838745,659.963928 
	C1705.884888,666.619202 1695.811035,673.095337 1685.774414,679.626160 
	C1684.100708,680.715332 1682.395508,681.790405 1680.598389,682.649048 
	C1673.634644,685.976196 1668.819824,683.249695 1668.387939,675.437988 
	C1667.563477,660.522949 1667.441650,645.556091 1666.177856,630.682983 
	C1665.382446,621.320435 1668.631592,615.386658 1676.255493,609.944641 
	C1702.503418,591.208862 1728.246216,571.766296 1754.236572,552.668091 
	C1776.207031,536.523804 1798.445068,520.736572 1820.200195,504.308655 
	C1834.681885,493.373138 1844.236572,479.624176 1841.716431,460.051239 
	C1839.306885,441.336029 1837.697632,422.511108 1834.977417,403.845032 
	C1833.213013,391.737396 1830.424072,379.742401 1827.407104,367.871552 
	C1826.149170,362.921875 1824.758179,357.346222 1817.944214,354.380219 
	C1815.051270,356.419128 1811.263794,358.466370 1808.236084,361.319763 
	C1781.844238,386.191071 1755.948608,411.601288 1729.170898,436.046844 
	C1710.048096,453.504303 1689.812378,469.744354 1670.023071,486.468353 
	C1667.852661,488.302460 1665.629761,490.717957 1662.433594,488.929657 
	C1662.433594,476.105499 1661.513916,463.403625 1662.613892,450.879181 
	C1665.402954,419.127075 1668.523438,387.399323 1667.552490,355.492249 
	C1667.047729,338.904968 1664.938721,322.332611 1659.585449,306.560577 
	C1654.286255,290.948212 1646.308472,276.861511 1631.954102,267.366974 
	C1627.233398,264.244446 1623.141479,263.986420 1618.281128,267.173340 
	C1607.322998,274.358307 1599.805542,284.283630 1594.431519,295.958679 
	C1585.660400,315.014679 1583.114380,335.480957 1582.529663,356.064453 
	C1582.030151,373.645752 1582.870972,391.294525 1583.796387,408.877808 
	C1584.561890,423.422638 1586.741333,437.893219 1587.501831,452.438141 
	C1588.139404,464.633331 1587.632812,476.888397 1587.632812,490.799438 
	C1583.766968,488.540222 1580.486816,487.170532 1577.861450,485.006409 
	C1541.942749,455.398224 1506.798462,424.915466 1473.642334,392.198975 
	C1462.977051,381.674988 1452.185425,371.278381 1441.398193,360.878937 
	C1439.736572,359.277069 1437.925049,357.736633 1435.941895,356.581360 
	C1431.413940,353.943665 1428.540527,354.460632 1426.258179,359.245483 
	C1423.705200,364.597961 1421.406372,370.259674 1420.207031,376.037903 
	C1414.412842,403.954712 1410.342773,432.102234 1408.071411,460.578888 
	C1406.575195,479.336487 1414.968018,492.484955 1428.334717,503.507599 
	C1436.016357,509.842224 1444.457397,515.250427 1452.494019,521.161011 
	C1493.739624,551.495300 1534.883911,581.968628 1576.289185,612.083313 
	C1582.157959,616.351746 1584.174927,621.092712 1583.752075,628.015930 
	C1582.801270,643.587219 1582.391968,659.190735 1581.634644,674.774963 
	C1581.203369,683.655640 1576.094238,686.406433 1568.162720,682.146240 
	C1566.410767,681.205200 1564.821777,679.960632 1563.158569,678.854370 
	C1538.505005,662.455994 1513.757446,646.196533 1489.216675,629.630920 
	C1430.768921,590.177429 1373.308594,549.354919 1317.996948,505.564392 
	C1314.119019,502.494263 1309.810181,499.816467 1305.361450,497.657593 
	C1299.703369,494.911865 1295.621216,496.142456 1293.031250,501.777008 
	C1290.707886,506.831573 1288.989624,512.343018 1288.062134,517.831665 
	C1281.611938,555.997559 1281.197876,594.533752 1281.742920,633.088684 
	C1281.943359,647.265869 1287.618286,659.338684 1297.203125,669.851318 
	C1308.344971,682.071655 1321.513916,691.706360 1335.800781,699.549194 
	C1381.538574,724.657043 1427.557861,749.252502 1473.496216,773.994202 
	C1505.096069,791.013489 1536.680054,808.064392 1568.425781,824.808105 
	C1573.973755,827.734253 1576.057495,831.422485 1575.729370,837.496216 
	C1574.852173,853.735291 1574.378662,869.995850 1573.621094,886.242065 
	C1573.468140,889.521301 1573.040527,892.841187 1572.262207,896.025696 
	C1570.983276,901.257507 1567.675415,903.053833 1562.615356,901.388977 
	C1560.426147,900.668823 1558.404541,899.418274 1556.338989,898.346863 
	C1540.700195,890.234985 1525.037354,882.168945 1509.442017,873.974182 
	C1457.654175,846.761780 1405.692383,819.871582 1354.171753,792.161560 
	C1295.348267,760.523682 1236.936401,728.120850 1178.309082,696.117310 
	C1173.951538,693.738647 1169.414062,691.586731 1164.756958,689.886353 
	C1159.249634,687.875488 1156.891846,689.141907 1155.041016,694.539062 
	C1154.295044,696.714539 1153.924194,699.064453 1153.699829,701.365906 
	C1151.869873,720.147156 1149.256714,738.903015 1148.539429,757.729736 
	C1147.476562,785.624268 1148.190552,813.568420 1152.371582,841.256897 
	C1155.526123,862.147705 1165.769531,878.552979 1184.549438,889.002747 
	C1190.350342,892.230530 1196.165161,895.541809 1202.277466,898.084473 
	C1282.294800,931.370300 1362.336914,964.596680 1442.437500,997.681458 
	C1480.490601,1013.398926 1518.690308,1028.760620 1556.802734,1044.335083 
	C1566.331665,1048.229004 1566.551270,1048.327148 1566.275024,1059.100220 
	C1565.823975,1076.695679 1564.911377,1094.278809 1564.365356,1111.872437 
	C1564.019775,1123.007690 1560.412964,1125.711304 1550.052734,1121.774292 
	C1490.462891,1099.130493 1430.720459,1076.873901 1371.374878,1053.605713 
	C1308.927368,1029.121338 1246.714478,1004.019226 1184.694824,978.469421 
	C1146.330078,962.664490 1108.473999,945.618164 1070.477905,928.928040 
	C1056.491821,922.784485 1042.876831,915.793579 1028.870850,909.698792 
	C1019.196960,905.489136 1015.330933,907.890442 1014.096558,918.344482 
	C1013.165161,926.233093 1012.383118,934.203430 1012.435852,942.131409 
	C1012.561829,961.074951 1012.855835,980.032288 1013.754150,998.952148 
	C1014.918091,1023.466980 1016.463806,1047.971436 1018.336853,1072.442871 
	C1020.892578,1105.832520 1038.721191,1128.581787 1068.805542,1141.982300 
	C1079.086914,1146.562012 1089.723999,1150.589844 1100.538208,1153.682373 
	C1143.290283,1165.907837 1186.136963,1177.808105 1229.024048,1189.553223 
	C1278.954590,1203.226929 1328.960571,1216.624634 1378.940063,1230.118896 
	C1435.323975,1245.342163 1491.721313,1260.515991 1548.096191,1275.772217 
	C1556.864868,1278.145264 1557.832642,1279.245972 1557.605713,1288.110840 
	C1557.129517,1306.706299 1556.280518,1325.291748 1555.682251,1343.884521 
	C1555.330688,1354.812256 1552.319580,1357.110229 1541.272095,1354.584961 
	C1539.327393,1354.140259 1537.341431,1353.864136 1535.412231,1353.364136 
	C1482.726562,1339.710571 1429.984375,1326.268921 1377.378418,1312.314087 
	C1300.077026,1291.808594 1222.775269,1271.291626 1145.656738,1250.112793 
	C1073.978516,1230.427979 1002.534729,1209.890015 931.001099,1189.680420 
	C916.631226,1185.620728 902.358704,1181.214355 887.972412,1177.215698 
	C875.734314,1173.814209 871.921692,1176.722534 871.674194,1189.131104 
	C871.614441,1192.129395 871.503662,1195.143677 871.722717,1198.128052 
	C872.984070,1215.314575 874.158142,1232.510498 875.698608,1249.672852 
	C878.453247,1280.363037 881.152405,1311.063721 884.468811,1341.695557 
	C886.072083,1356.504761 889.219055,1371.025635 894.297913,1385.235352 
	C902.373535,1407.829468 917.321167,1422.545288 940.675903,1427.486938 
	C966.593933,1432.970703 992.695007,1437.676270 1018.836121,1441.996094 
	C1050.539551,1447.235352 1082.378174,1451.651489 1114.140137,1456.541870 
	C1151.782471,1462.337646 1189.391357,1468.350220 1227.040771,1474.098755 
	C1259.461304,1479.048950 1291.930664,1483.677979 1324.355713,1488.599365 
	C1361.351807,1494.214355 1398.322998,1499.992920 1435.304321,1505.705566 
	C1469.674316,1511.014648 1504.050415,1516.285400 1538.407959,1521.673828 
	C1547.430786,1523.088867 1548.648804,1524.574585 1548.299561,1533.155762 
	C1547.489136,1553.069214 1546.592896,1572.979370 1545.650635,1592.887085 
	C1545.201782,1602.371826 1542.350098,1604.575317 1533.355225,1603.433960 
	C1513.661377,1600.935181 1493.950928,1598.562988 1474.232178,1596.267700 
	C1448.568970,1593.280396 1422.879395,1590.518433 1397.222900,1587.475464 
	C1365.328613,1583.692871 1333.464478,1579.656372 1301.572388,1575.854614 
	C1277.566162,1572.992920 1253.517944,1570.480347 1229.521606,1567.540283 
	C1194.359741,1563.232178 1159.229858,1558.662842 1124.082031,1554.238892 
	C1095.490356,1550.639893 1066.858643,1547.337891 1038.304688,1543.463379 
	C992.700500,1537.275391 947.101624,1531.020020 901.583618,1524.235229 
	C859.650024,1517.984619 817.827026,1510.992676 775.951721,1504.349854 
	C773.000427,1503.881714 770.007690,1503.675659 767.054626,1503.216675 
	C756.337524,1501.550781 750.760498,1505.944580 751.821106,1516.551636 
	C753.303040,1531.372070 755.593994,1546.117188 757.754883,1560.862915 
	C764.966248,1610.071533 773.127991,1659.115356 784.342590,1707.595337 
	C789.612488,1730.376587 796.765564,1752.389038 811.395386,1771.273193 
	C818.809570,1780.843384 827.934143,1787.734497 839.828857,1790.132568 
	C848.231262,1791.826660 856.830994,1793.452026 865.349121,1793.486328 
	C887.621216,1793.576172 909.897705,1792.814697 932.170837,1792.320679 
	C960.428284,1791.694092 988.685120,1791.032715 1016.940430,1790.318481 
	C1041.198486,1789.705322 1065.453857,1788.986816 1089.710938,1788.333740 
	C1114.967163,1787.653809 1140.225220,1787.033325 1165.480347,1786.318237 
	C1187.072021,1785.706909 1208.660278,1784.974731 1230.251343,1784.338623 
	C1253.840454,1783.643311 1277.431763,1783.018433 1301.020874,1782.323120 
	C1322.611938,1781.686646 1344.199219,1780.916138 1365.791870,1780.350830 
	C1394.379761,1779.602539 1422.974365,1779.107178 1451.560181,1778.295898 
	C1476.140137,1777.598389 1500.715576,1776.701172 1525.285522,1775.708374 
	C1536.280273,1775.264282 1538.615234,1776.970459 1538.274414,1787.765625 
	C1537.582397,1809.681885 1536.624146,1831.590698 1535.631592,1853.495972 
	C1535.300049,1860.814941 1533.240845,1863.134521 1526.259766,1863.583618 
	C1503.088013,1865.074341 1479.902588,1866.352051 1456.719482,1867.661133 
	C1442.472412,1868.465454 1428.217651,1869.131226 1413.971069,1869.942383 
	C1392.779663,1871.149048 1371.594971,1872.469116 1350.402954,1873.665161 
	C1333.499634,1874.619141 1316.580078,1875.304810 1299.685547,1876.388184 
	C1274.220459,1878.021362 1248.776001,1879.976440 1223.312744,1881.639038 
	C1208.743408,1882.590454 1194.151489,1883.190918 1179.574219,1884.027100 
	C1159.046875,1885.204590 1138.526123,1886.502686 1117.997559,1887.658691 
	C1100.761719,1888.629150 1083.507690,1889.302490 1066.281006,1890.407837 
	C1041.148193,1892.020874 1016.037415,1893.976562 990.907715,1895.642090 
	C976.340820,1896.607544 961.752014,1897.237549 947.178833,1898.114502 
	C928.313965,1899.249878 909.459900,1900.572021 890.591553,1901.644287 
	C872.691956,1902.661743 854.766602,1903.255371 836.876343,1904.404785 
	C812.407288,1905.976807 787.966003,1907.974731 763.502625,1909.641357 
	C748.271606,1910.678833 733.015747,1911.351685 717.785095,1912.393433 
	C714.190125,1912.639282 710.534973,1913.357300 707.113953,1914.484741 
	C701.645264,1916.286743 699.138428,1920.268066 699.862244,1926.038330 
	C700.269836,1929.287476 701.233459,1932.591797 702.597656,1935.573242 
	C707.013855,1945.224854 711.658020,1954.774658 716.345093,1964.299316 
	C739.684387,2011.727051 762.940491,2059.196533 786.497437,2106.515869 
	C795.110046,2123.816162 805.329834,2140.254395 818.417847,2154.546631 
	C824.403931,2161.083252 831.338623,2167.093262 838.783264,2171.879639 
	C853.547119,2181.371826 870.526489,2181.748779 887.018677,2179.205811 
	C926.957703,2173.047607 966.733704,2165.827393 1006.561768,2158.956299 
	C1039.544678,2153.266357 1072.512817,2147.489746 1105.479004,2141.703857 
	C1138.112183,2135.976318 1170.728271,2130.150879 1203.363770,2124.437256 
	C1234.372070,2119.008789 1265.395508,2113.666748 1296.413208,2108.291992 
	C1333.959595,2101.786133 1371.501709,2095.256104 1409.055420,2088.792236 
	C1444.641602,2082.667236 1480.232788,2076.570801 1515.839233,2070.564941 
	C1523.156982,2069.330811 1526.095703,2072.044678 1526.309937,2079.775879 
	C1526.429932,2084.105469 1526.471313,2088.447998 1526.286499,2092.773438 
	C1525.463989,2112.016846 1524.475830,2131.253174 1523.692505,2150.498047 
	C1523.270874,2160.856689 1522.779785,2161.657471 1512.881592,2163.651367 
	C1489.802124,2168.301270 1466.713745,2172.906494 1443.634399,2177.556885 
	C1324.329590,2201.595703 1205.024414,2225.632568 1085.723633,2249.691406 
	C995.352844,2267.915771 904.985107,2286.154785 814.627197,2304.443115 
	C806.513000,2306.085449 798.339050,2307.677979 790.450806,2310.125000 
	C781.883301,2312.782715 779.930847,2317.434326 784.090149,2325.345703 
	C787.942627,2332.672852 792.285461,2339.858887 797.279602,2346.450195 
	C836.880432,2398.716309 879.469360,2448.398926 926.037292,2494.629395 
	C938.698303,2507.198486 953.071838,2517.190918 969.157654,2524.738525 
	C982.854370,2531.165283 997.139771,2534.773682 1012.489624,2534.435303 
	C1030.399292,2534.040039 1047.373169,2529.549316 1063.777832,2523.148193 
	C1104.608765,2507.215576 1145.256226,2490.808838 1185.895996,2474.390625 
	C1279.799927,2436.454590 1373.647827,2398.379883 1467.541016,2360.416748 
	C1479.237671,2355.687744 1490.989624,2351.069824 1502.864990,2346.816895 
	C1512.097046,2343.510498 1516.051147,2346.606689 1515.754517,2356.201904 
	C1515.292480,2371.142822 1514.792847,2386.082520 1514.336914,2401.023926 
	C1514.083008,2409.338379 1513.835449,2417.653320 1513.676758,2425.969971 
	C1513.538940,2433.189697 1510.797974,2437.969727 1503.610474,2441.073242 
	C1457.583130,2460.947754 1411.769043,2481.315186 1365.808594,2501.345703 
	C1272.967773,2541.808350 1180.065430,2582.129883 1087.236084,2622.618652 
	C1080.871948,2625.394531 1074.582275,2628.600830 1068.837646,2632.467773 
	C1062.443481,2636.772217 1061.794800,2642.169678 1067.245850,2647.516846 
	C1071.921143,2652.103271 1077.337402,2656.446289 1083.221191,2659.194580 
	C1101.863525,2667.902344 1120.605103,2676.525879 1139.805542,2683.884766 
	C1181.347168,2699.805664 1223.048706,2715.341064 1264.976440,2730.211914 
	C1291.566528,2739.642822 1318.673828,2747.617432 1345.564209,2756.197998 
	C1357.540649,2760.019531 1369.327148,2758.939209 1380.436157,2753.440186 
	C1387.850952,2749.769775 1395.294678,2745.721436 1401.726562,2740.590088 
	C1415.737305,2729.412109 1429.624268,2717.975586 1442.610107,2705.642822 
	C1458.293091,2690.748291 1472.961426,2674.787598 1488.139648,2659.357910 
	C1491.373169,2656.070801 1494.847046,2651.854980 1500.048096,2654.298828 
	C1504.784668,2656.524414 1503.761719,2661.661133 1503.621704,2665.893311 
	C1503.314575,2675.172852 1502.670410,2684.441162 1502.358887,2693.720459 
	C1501.623047,2715.642090 1501.079834,2737.570068 1500.310303,2759.490479 
	C1499.588013,2780.069336 1498.643188,2800.640381 1497.867188,2821.217529 
	C1497.653809,2826.876221 1497.911987,2832.557617 1497.577515,2838.206055 
	C1496.597656,2854.746094 1495.277100,2871.266602 1494.372559,2887.810303 
	C1493.302734,2907.373779 1492.743774,2926.966553 1491.571411,2946.523193 
	C1490.024536,2972.326904 1488.030640,2998.103760 1486.356689,3023.900391 
	C1485.325073,3039.798828 1484.737427,3055.727539 1483.580933,3071.615723 
	C1482.018066,3093.087891 1479.958984,3114.523682 1478.372803,3135.994629 
	C1476.637695,3159.479492 1475.421143,3183.003906 1473.574097,3206.479248 
	C1471.365601,3234.545166 1468.776001,3262.582031 1466.257080,3290.622803 
	C1464.958130,3305.083496 1463.454956,3319.525879 1462.012817,3334.295898 
	C1459.735962,3334.295898 1458.085205,3334.295898 1455.479858,3334.150146 
	C1445.070923,3334.006104 1435.612793,3333.862061 1426.164307,3334.100830 
	C1423.428589,3334.169922 1420.720703,3335.336426 1418.000000,3336.000000 
	C946.000000,3336.000000 474.000000,3336.000000 2.000000,3336.000000 
	C2.000000,3315.847412 2.000000,3295.859375 2.679016,3274.753418 
	C31.927607,3257.666992 58.436886,3238.763916 81.598465,3215.656250 
	C109.246628,3188.072510 129.526901,3155.496826 143.859467,3119.150146 
	C162.008270,3073.126465 172.027725,3025.124756 177.534576,2976.231689 
	C181.907730,2937.404297 184.873810,2898.394531 187.478561,2859.399902 
	C189.138702,2834.546631 189.591721,2809.572754 189.580536,2784.653320 
	C189.242935,2032.188232 188.826019,1279.723145 188.170334,527.258240 
	C188.143753,496.747803 186.250076,466.200562 184.179626,435.741608 
	C182.316360,408.330780 179.483780,380.961853 176.237701,353.674469 
	C170.970428,309.396545 161.414551,266.041443 145.626312,224.227737 
	C131.233643,186.110046 110.320366,151.952667 81.449776,123.122719 
	C59.472107,101.175987 34.204056,83.318573 7.438424,67.616074 
	C5.854675,66.686943 3.823152,66.521057 2.000000,66.000000 
	C2.000000,44.678482 2.000000,23.356966 2.000000,2.000000 
	C504.709564,2.000000 1007.419128,2.000000 1511.564453,2.697765 
	C1525.350220,3.565697 1537.700195,3.735863 1550.957275,4.097781 
	C1575.060913,5.413815 1598.273438,6.282573 1621.449829,7.728641 
	C1648.903687,9.441587 1676.362061,11.262160 1703.753662,13.748976 
	C1735.740479,16.652983 1767.734863,19.726042 1799.584961,23.821220 
	C1838.015625,28.762493 1876.447021,33.998608 1914.611694,40.638462 
	C1979.973877,52.010132 2044.742798,66.232628 2108.833252,83.563904 
	C2174.606201,101.350174 2239.328857,122.295082 2302.866943,146.814438 
	C2369.883545,172.676025 2435.103760,202.522949 2498.262695,236.823593 
	C2560.002441,270.353333 2619.451172,307.484802 2676.008545,349.196289 
	C2740.884033,397.042633 2801.908691,449.299500 2857.358643,507.913177 
	C2871.758057,523.134155 2886.424805,538.134827 2900.197266,553.910339 
	C2947.050293,607.576355 2989.861328,664.294128 3027.929932,724.568726 
	C3065.446777,783.970032 3098.560059,845.689087 3126.855469,910.005981 
	C3149.611816,961.732910 3169.436768,1014.534912 3186.275146,1068.484863 
	C3202.208252,1119.532959 3215.869385,1171.175903 3226.048096,1223.655640 
	C3233.299316,1261.041626 3239.887451,1298.597656 3245.267090,1336.292480 
	C3249.849854,1368.401245 3252.542236,1400.792725 3255.563965,1433.106445 
	C3257.077393,1449.292114 3257.460693,1465.583496 3258.193359,1482.717407 
	C3258.906494,1489.714966 3255.895752,1496.238281 3260.000000,1502.000000 
z"/>
<path fill="#FEFEFE" opacity="1.000000" stroke="none" 
	d="
M1456.434326,3334.295898 
	C1458.085205,3334.295898 1459.735962,3334.295898 1462.012817,3334.295898 
	C1463.454956,3319.525879 1464.958130,3305.083496 1466.257080,3290.622803 
	C1468.776001,3262.582031 1471.365601,3234.545166 1473.574097,3206.479248 
	C1475.421143,3183.003906 1476.637695,3159.479492 1478.372803,3135.994629 
	C1479.958984,3114.523682 1482.018066,3093.087891 1483.580933,3071.615723 
	C1484.737427,3055.727539 1485.325073,3039.798828 1486.356689,3023.900391 
	C1488.030640,2998.103760 1490.024536,2972.326904 1491.571411,2946.523193 
	C1492.743774,2926.966553 1493.302734,2907.373779 1494.372559,2887.810303 
	C1495.277100,2871.266602 1496.597656,2854.746094 1497.577515,2838.206055 
	C1497.911987,2832.557617 1497.653809,2826.876221 1497.867188,2821.217529 
	C1498.643188,2800.640381 1499.588013,2780.069336 1500.310303,2759.490479 
	C1501.079834,2737.570068 1501.623047,2715.642090 1502.358887,2693.720459 
	C1502.670410,2684.441162 1503.314575,2675.172852 1503.621704,2665.893311 
	C1503.761719,2661.661133 1504.784668,2656.524414 1500.048096,2654.298828 
	C1494.847046,2651.854980 1491.373169,2656.070801 1488.139648,2659.357910 
	C1472.961426,2674.787598 1458.293091,2690.748291 1442.610107,2705.642822 
	C1429.624268,2717.975586 1415.737305,2729.412109 1401.726562,2740.590088 
	C1395.294678,2745.721436 1387.850952,2749.769775 1380.436157,2753.440186 
	C1369.327148,2758.939209 1357.540649,2760.019531 1345.564209,2756.197998 
	C1318.673828,2747.617432 1291.566528,2739.642822 1264.976440,2730.211914 
	C1223.048706,2715.341064 1181.347168,2699.805664 1139.805542,2683.884766 
	C1120.605103,2676.525879 1101.863525,2667.902344 1083.221191,2659.194580 
	C1077.337402,2656.446289 1071.921143,2652.103271 1067.245850,2647.516846 
	C1061.794800,2642.169678 1062.443481,2636.772217 1068.837646,2632.467773 
	C1074.582275,2628.600830 1080.871948,2625.394531 1087.236084,2622.618652 
	C1180.065430,2582.129883 1272.967773,2541.808350 1365.808594,2501.345703 
	C1411.769043,2481.315186 1457.583130,2460.947754 1503.610474,2441.073242 
	C1510.797974,2437.969727 1513.538940,2433.189697 1513.676758,2425.969971 
	C1513.835449,2417.653320 1514.083008,2409.338379 1514.336914,2401.023926 
	C1514.792847,2386.082520 1515.292480,2371.142822 1515.754517,2356.201904 
	C1516.051147,2346.606689 1512.097046,2343.510498 1502.864990,2346.816895 
	C1490.989624,2351.069824 1479.237671,2355.687744 1467.541016,2360.416748 
	C1373.647827,2398.379883 1279.799927,2436.454590 1185.895996,2474.390625 
	C1145.256226,2490.808838 1104.608765,2507.215576 1063.777832,2523.148193 
	C1047.373169,2529.549316 1030.399292,2534.040039 1012.489624,2534.435303 
	C997.139771,2534.773682 982.854370,2531.165283 969.157654,2524.738525 
	C953.071838,2517.190918 938.698303,2507.198486 926.037292,2494.629395 
	C879.469360,2448.398926 836.880432,2398.716309 797.279602,2346.450195 
	C792.285461,2339.858887 787.942627,2332.672852 784.090149,2325.345703 
	C779.930847,2317.434326 781.883301,2312.782715 790.450806,2310.125000 
	C798.339050,2307.677979 806.513000,2306.085449 814.627197,2304.443115 
	C904.985107,2286.154785 995.352844,2267.915771 1085.723633,2249.691406 
	C1205.024414,2225.632568 1324.329590,2201.595703 1443.634399,2177.556885 
	C1466.713745,2172.906494 1489.802124,2168.301270 1512.881592,2163.651367 
	C1522.779785,2161.657471 1523.270874,2160.856689 1523.692505,2150.498047 
	C1524.475830,2131.253174 1525.463989,2112.016846 1526.286499,2092.773438 
	C1526.471313,2088.447998 1526.429932,2084.105469 1526.309937,2079.775879 
	C1526.095703,2072.044678 1523.156982,2069.330811 1515.839233,2070.564941 
	C1480.232788,2076.570801 1444.641602,2082.667236 1409.055420,2088.792236 
	C1371.501709,2095.256104 1333.959595,2101.786133 1296.413208,2108.291992 
	C1265.395508,2113.666748 1234.372070,2119.008789 1203.363770,2124.437256 
	C1170.728271,2130.150879 1138.112183,2135.976318 1105.479004,2141.703857 
	C1072.512817,2147.489746 1039.544678,2153.266357 1006.561768,2158.956299 
	C966.733704,2165.827393 926.957703,2173.047607 887.018677,2179.205811 
	C870.526489,2181.748779 853.547119,2181.371826 838.783264,2171.879639 
	C831.338623,2167.093262 824.403931,2161.083252 818.417847,2154.546631 
	C805.329834,2140.254395 795.110046,2123.816162 786.497437,2106.515869 
	C762.940491,2059.196533 739.684387,2011.727051 716.345093,1964.299316 
	C711.658020,1954.774658 707.013855,1945.224854 702.597656,1935.573242 
	C701.233459,1932.591797 700.269836,1929.287476 699.862244,1926.038330 
	C699.138428,1920.268066 701.645264,1916.286743 707.113953,1914.484741 
	C710.534973,1913.357300 714.190125,1912.639282 717.785095,1912.393433 
	C733.015747,1911.351685 748.271606,1910.678833 763.502625,1909.641357 
	C787.966003,1907.974731 812.407288,1905.976807 836.876343,1904.404785 
	C854.766602,1903.255371 872.691956,1902.661743 890.591553,1901.644287 
	C909.459900,1900.572021 928.313965,1899.249878 947.178833,1898.114502 
	C961.752014,1897.237549 976.340820,1896.607544 990.907715,1895.642090 
	C1016.037415,1893.976562 1041.148193,1892.020874 1066.281006,1890.407837 
	C1083.507690,1889.302490 1100.761719,1888.629150 1117.997559,1887.658691 
	C1138.526123,1886.502686 1159.046875,1885.204590 1179.574219,1884.027100 
	C1194.151489,1883.190918 1208.743408,1882.590454 1223.312744,1881.639038 
	C1248.776001,1879.976440 1274.220459,1878.021362 1299.685547,1876.388184 
	C1316.580078,1875.304810 1333.499634,1874.619141 1350.402954,1873.665161 
	C1371.594971,1872.469116 1392.779663,1871.149048 1413.971069,1869.942383 
	C1428.217651,1869.131226 1442.472412,1868.465454 1456.719482,1867.661133 
	C1479.902588,1866.352051 1503.088013,1865.074341 1526.259766,1863.583618 
	C1533.240845,1863.134521 1535.300049,1860.814941 1535.631592,1853.495972 
	C1536.624146,1831.590698 1537.582397,1809.681885 1538.274414,1787.765625 
	C1538.615234,1776.970459 1536.280273,1775.264282 1525.285522,1775.708374 
	C1500.715576,1776.701172 1476.140137,1777.598389 1451.560181,1778.295898 
	C1422.974365,1779.107178 1394.379761,1779.602539 1365.791870,1780.350830 
	C1344.199219,1780.916138 1322.611938,1781.686646 1301.020874,1782.323120 
	C1277.431763,1783.018433 1253.840454,1783.643311 1230.251343,1784.338623 
	C1208.660278,1784.974731 1187.072021,1785.706909 1165.480347,1786.318237 
	C1140.225220,1787.033325 1114.967163,1787.653809 1089.710938,1788.333740 
	C1065.453857,1788.986816 1041.198486,1789.705322 1016.940430,1790.318481 
	C988.685120,1791.032715 960.428284,1791.694092 932.170837,1792.320679 
	C909.897705,1792.814697 887.621216,1793.576172 865.349121,1793.486328 
	C856.830994,1793.452026 848.231262,1791.826660 839.828857,1790.132568 
	C827.934143,1787.734497 818.809570,1780.843384 811.395386,1771.273193 
	C796.765564,1752.389038 789.612488,1730.376587 784.342590,1707.595337 
	C773.127991,1659.115356 764.966248,1610.071533 757.754883,1560.862915 
	C755.593994,1546.117188 753.303040,1531.372070 751.821106,1516.551636 
	C750.760498,1505.944580 756.337524,1501.550781 767.054626,1503.216675 
	C770.007690,1503.675659 773.000427,1503.881714 775.951721,1504.349854 
	C817.827026,1510.992676 859.650024,1517.984619 901.583618,1524.235229 
	C947.101624,1531.020020 992.700500,1537.275391 1038.304688,1543.463379 
	C1066.858643,1547.337891 1095.490356,1550.639893 1124.082031,1554.238892 
	C1159.229858,1558.662842 1194.359741,1563.232178 1229.521606,1567.540283 
	C1253.517944,1570.480347 1277.566162,1572.992920 1301.572388,1575.854614 
	C1333.464478,1579.656372 1365.328613,1583.692871 1397.222900,1587.475464 
	C1422.879395,1590.518433 1448.568970,1593.280396 1474.232178,1596.267700 
	C1493.950928,1598.562988 1513.661377,1600.935181 1533.355225,1603.433960 
	C1542.350098,1604.575317 1545.201782,1602.371826 1545.650635,1592.887085 
	C1546.592896,1572.979370 1547.489136,1553.069214 1548.299561,1533.155762 
	C1548.648804,1524.574585 1547.430786,1523.088867 1538.407959,1521.673828 
	C1504.050415,1516.285400 1469.674316,1511.014648 1435.304321,1505.705566 
	C1398.322998,1499.992920 1361.351807,1494.214355 1324.355713,1488.599365 
	C1291.930664,1483.677979 1259.461304,1479.048950 1227.040771,1474.098755 
	C1189.391357,1468.350220 1151.782471,1462.337646 1114.140137,1456.541870 
	C1082.378174,1451.651489 1050.539551,1447.235352 1018.836121,1441.996094 
	C992.695007,1437.676270 966.593933,1432.970703 940.675903,1427.486938 
	C917.321167,1422.545288 902.373535,1407.829468 894.297913,1385.235352 
	C889.219055,1371.025635 886.072083,1356.504761 884.468811,1341.695557 
	C881.152405,1311.063721 878.453247,1280.363037 875.698608,1249.672852 
	C874.158142,1232.510498 872.984070,1215.314575 871.722717,1198.128052 
	C871.503662,1195.143677 871.614441,1192.129395 871.674194,1189.131104 
	C871.921692,1176.722534 875.734314,1173.814209 887.972412,1177.215698 
	C902.358704,1181.214355 916.631226,1185.620728 931.001099,1189.680420 
	C1002.534729,1209.890015 1073.978516,1230.427979 1145.656738,1250.112793 
	C1222.775269,1271.291626 1300.077026,1291.808594 1377.378418,1312.314087 
	C1429.984375,1326.268921 1482.726562,1339.710571 1535.412231,1353.364136 
	C1537.341431,1353.864136 1539.327393,1354.140259 1541.272095,1354.584961 
	C1552.319580,1357.110229 1555.330688,1354.812256 1555.682251,1343.884521 
	C1556.280518,1325.291748 1557.129517,1306.706299 1557.605713,1288.110840 
	C1557.832642,1279.245972 1556.864868,1278.145264 1548.096191,1275.772217 
	C1491.721313,1260.515991 1435.323975,1245.342163 1378.940063,1230.118896 
	C1328.960571,1216.624634 1278.954590,1203.226929 1229.024048,1189.553223 
	C1186.136963,1177.808105 1143.290283,1165.907837 1100.538208,1153.682373 
	C1089.723999,1150.589844 1079.086914,1146.562012 1068.805542,1141.982300 
	C1038.721191,1128.581787 1020.892578,1105.832520 1018.336853,1072.442871 
	C1016.463806,1047.971436 1014.918091,1023.466980 1013.754150,998.952148 
	C1012.855835,980.032288 1012.561829,961.074951 1012.435852,942.131409 
	C1012.383118,934.203430 1013.165161,926.233093 1014.096558,918.344482 
	C1015.330933,907.890442 1019.196960,905.489136 1028.870850,909.698792 
	C1042.876831,915.793579 1056.491821,922.784485 1070.477905,928.928040 
	C1108.473999,945.618164 1146.330078,962.664490 1184.694824,978.469421 
	C1246.714478,1004.019226 1308.927368,1029.121338 1371.374878,1053.605713 
	C1430.720459,1076.873901 1490.462891,1099.130493 1550.052734,1121.774292 
	C1560.412964,1125.711304 1564.019775,1123.007690 1564.365356,1111.872437 
	C1564.911377,1094.278809 1565.823975,1076.695679 1566.275024,1059.100220 
	C1566.551270,1048.327148 1566.331665,1048.229004 1556.802734,1044.335083 
	C1518.690308,1028.760620 1480.490601,1013.398926 1442.437500,997.681458 
	C1362.336914,964.596680 1282.294800,931.370300 1202.277466,898.084473 
	C1196.165161,895.541809 1190.350342,892.230530 1184.549438,889.002747 
	C1165.769531,878.552979 1155.526123,862.147705 1152.371582,841.256897 
	C1148.190552,813.568420 1147.476562,785.624268 1148.539429,757.729736 
	C1149.256714,738.903015 1151.869873,720.147156 1153.699829,701.365906 
	C1153.924194,699.064453 1154.295044,696.714539 1155.041016,694.539062 
	C1156.891846,689.141907 1159.249634,687.875488 1164.756958,689.886353 
	C1169.414062,691.586731 1173.951538,693.738647 1178.309082,696.117310 
	C1236.936401,728.120850 1295.348267,760.523682 1354.171753,792.161560 
	C1405.692383,819.871582 1457.654175,846.761780 1509.442017,873.974182 
	C1525.037354,882.168945 1540.700195,890.234985 1556.338989,898.346863 
	C1558.404541,899.418274 1560.426147,900.668823 1562.615356,901.388977 
	C1567.675415,903.053833 1570.983276,901.257507 1572.262207,896.025696 
	C1573.040527,892.841187 1573.468140,889.521301 1573.621094,886.242065 
	C1574.378662,869.995850 1574.852173,853.735291 1575.729370,837.496216 
	C1576.057495,831.422485 1573.973755,827.734253 1568.425781,824.808105 
	C1536.680054,808.064392 1505.096069,791.013489 1473.496216,773.994202 
	C1427.557861,749.252502 1381.538574,724.657043 1335.800781,699.549194 
	C1321.513916,691.706360 1308.344971,682.071655 1297.203125,669.851318 
	C1287.618286,659.338684 1281.943359,647.265869 1281.742920,633.088684 
	C1281.197876,594.533752 1281.611938,555.997559 1288.062134,517.831665 
	C1288.989624,512.343018 1290.707886,506.831573 1293.031250,501.777008 
	C1295.621216,496.142456 1299.703369,494.911865 1305.361450,497.657593 
	C1309.810181,499.816467 1314.119019,502.494263 1317.996948,505.564392 
	C1373.308594,549.354919 1430.768921,590.177429 1489.216675,629.630920 
	C1513.757446,646.196533 1538.505005,662.455994 1563.158569,678.854370 
	C1564.821777,679.960632 1566.410767,681.205200 1568.162720,682.146240 
	C1576.094238,686.406433 1581.203369,683.655640 1581.634644,674.774963 
	C1582.391968,659.190735 1582.801270,643.587219 1583.752075,628.015930 
	C1584.174927,621.092712 1582.157959,616.351746 1576.289185,612.083313 
	C1534.883911,581.968628 1493.739624,551.495300 1452.494019,521.161011 
	C1444.457397,515.250427 1436.016357,509.842224 1428.334717,503.507599 
	C1414.968018,492.484955 1406.575195,479.336487 1408.071411,460.578888 
	C1410.342773,432.102234 1414.412842,403.954712 1420.207031,376.037903 
	C1421.406372,370.259674 1423.705200,364.597961 1426.258179,359.245483 
	C1428.540527,354.460632 1431.413940,353.943665 1435.941895,356.581360 
	C1437.925049,357.736633 1439.736572,359.277069 1441.398193,360.878937 
	C1452.185425,371.278381 1462.977051,381.674988 1473.642334,392.198975 
	C1506.798462,424.915466 1541.942749,455.398224 1577.861450,485.006409 
	C1580.486816,487.170532 1583.766968,488.540222 1587.632812,490.799438 
	C1587.632812,476.888397 1588.139404,464.633331 1587.501831,452.438141 
	C1586.741333,437.893219 1584.561890,423.422638 1583.796387,408.877808 
	C1582.870972,391.294525 1582.030151,373.645752 1582.529663,356.064453 
	C1583.114380,335.480957 1585.660400,315.014679 1594.431519,295.958679 
	C1599.805542,284.283630 1607.322998,274.358307 1618.281128,267.173340 
	C1623.141479,263.986420 1627.233398,264.244446 1631.954102,267.366974 
	C1646.308472,276.861511 1654.286255,290.948212 1659.585449,306.560577 
	C1664.938721,322.332611 1667.047729,338.904968 1667.552490,355.492249 
	C1668.523438,387.399323 1665.402954,419.127075 1662.613892,450.879181 
	C1661.513916,463.403625 1662.433594,476.105499 1662.433594,488.929657 
	C1665.629761,490.717957 1667.852661,488.302460 1670.023071,486.468353 
	C1689.812378,469.744354 1710.048096,453.504303 1729.170898,436.046844 
	C1755.948608,411.601288 1781.844238,386.191071 1808.236084,361.319763 
	C1811.263794,358.466370 1815.051270,356.419128 1817.944214,354.380219 
	C1824.758179,357.346222 1826.149170,362.921875 1827.407104,367.871552 
	C1830.424072,379.742401 1833.213013,391.737396 1834.977417,403.845032 
	C1837.697632,422.511108 1839.306885,441.336029 1841.716431,460.051239 
	C1844.236572,479.624176 1834.681885,493.373138 1820.200195,504.308655 
	C1798.445068,520.736572 1776.207031,536.523804 1754.236572,552.668091 
	C1728.246216,571.766296 1702.503418,591.208862 1676.255493,609.944641 
	C1668.631592,615.386658 1665.382446,621.320435 1666.177856,630.682983 
	C1667.441650,645.556091 1667.563477,660.522949 1668.387939,675.437988 
	C1668.819824,683.249695 1673.634644,685.976196 1680.598389,682.649048 
	C1682.395508,681.790405 1684.100708,680.715332 1685.774414,679.626160 
	C1695.811035,673.095337 1705.884888,666.619202 1715.838745,659.963928 
	C1779.442993,617.436951 1842.493774,574.121094 1903.434692,527.814026 
	C1912.696167,520.776733 1921.754272,513.471680 1931.023560,506.445099 
	C1934.983276,503.443542 1939.036865,500.444855 1943.415161,498.144257 
	C1950.305786,494.523499 1954.875488,495.902740 1957.691162,503.276947 
	C1960.383301,510.327576 1962.470581,517.831177 1963.361816,525.309753 
	C1967.652954,561.325378 1969.251343,597.504883 1968.194946,633.765625 
	C1967.578979,654.905762 1955.143311,669.357361 1939.840332,681.982605 
	C1922.518677,696.273376 1902.477173,706.138123 1882.898804,716.718872 
	C1830.270752,745.160889 1777.572632,773.473450 1724.889404,801.813538 
	C1710.549194,809.527588 1696.266602,817.360168 1681.745728,824.720886 
	C1676.233398,827.514954 1673.943237,831.133240 1674.254028,837.302490 
	C1675.155884,855.210022 1675.571411,873.141479 1676.381226,891.054443 
	C1676.836304,901.123291 1681.927246,904.336182 1690.753540,899.815430 
	C1719.748901,884.964478 1748.642822,869.914673 1777.516846,854.828247 
	C1799.613159,843.283081 1821.655762,831.633728 1843.659180,819.912476 
	C1888.244873,796.161804 1932.898804,772.535522 1977.311401,748.464661 
	C2009.446167,731.048340 2041.225830,712.977295 2073.198242,695.260193 
	C2076.677490,693.332336 2080.286133,691.552551 2084.007080,690.165955 
	C2090.659668,687.686768 2093.820312,689.373108 2095.476562,696.290222 
	C2096.476562,700.466858 2097.189453,704.756592 2097.541260,709.035828 
	C2098.601807,721.929443 2099.641602,734.831970 2100.277100,747.751343 
	C2100.978516,762.013550 2102.097412,776.338074 2101.449951,790.563293 
	C2100.608154,809.056763 2100.362549,827.629333 2096.500000,845.950500 
	C2092.539062,864.738770 2082.873047,879.345886 2066.102783,888.187622 
	C2049.397461,896.995056 2032.136353,904.880432 2014.678955,912.107361 
	C1911.290649,954.907715 1807.774536,997.399414 1704.300293,1039.992065 
	C1699.078003,1042.141602 1693.837646,1044.247070 1688.619385,1046.406250 
	C1685.194092,1047.823608 1683.481934,1050.249634 1683.640137,1054.135010 
	C1684.301758,1070.397461 1684.846924,1086.664551 1685.413940,1102.930664 
	C1685.541382,1106.586548 1685.513794,1110.248535 1685.682251,1113.902100 
	C1686.071655,1122.349609 1690.017700,1125.143188 1698.000488,1122.181641 
	C1728.821045,1110.747070 1759.715698,1099.496338 1790.347900,1087.573853 
	C1863.063599,1059.271851 1935.927979,1031.320190 2008.193604,1001.903687 
	C2068.460693,977.371338 2127.983643,951.008484 2187.779297,925.323730 
	C2196.623779,921.524536 2205.151123,916.987427 2213.832275,912.806946 
	C2215.927246,911.798096 2218.013428,910.756592 2220.167969,909.889221 
	C2230.999268,905.528320 2234.649414,907.533997 2235.903809,919.454651 
	C2238.306641,942.291443 2238.492432,965.148621 2236.514648,988.077881 
	C2235.486816,999.991882 2236.421143,1012.068359 2235.550049,1024.004272 
	C2234.104004,1043.815308 2232.904541,1063.728149 2229.808594,1083.314819 
	C2225.258301,1112.102783 2207.062500,1131.187744 2180.952637,1141.824707 
	C2160.121582,1150.310913 2138.456787,1156.984375 2116.780518,1163.114380 
	C2062.815918,1178.375854 2008.656860,1192.953369 1954.532837,1207.647217 
	C1887.920654,1225.731445 1821.267700,1243.666016 1754.626099,1261.641479 
	C1737.005981,1266.394287 1719.364990,1271.069580 1701.728760,1275.762451 
	C1692.964111,1278.094482 1692.167847,1278.753296 1692.394653,1288.074341 
	C1692.871582,1307.670044 1693.607422,1327.260132 1694.373413,1346.847168 
	C1694.664917,1354.301880 1698.548706,1357.142334 1706.573853,1355.299683 
	C1719.511353,1352.329468 1732.360718,1348.966675 1745.215698,1345.647949 
	C1781.847778,1336.190308 1818.506348,1326.830933 1855.076538,1317.138794 
	C1910.569214,1302.431519 1966.084229,1287.796509 2021.431396,1272.555054 
	C2115.169678,1246.741211 2208.791504,1220.502563 2302.445312,1194.382202 
	C2321.624756,1189.033081 2340.729248,1183.417114 2359.869873,1177.928711 
	C2361.779053,1177.381348 2363.668457,1176.683716 2365.617432,1176.369751 
	C2374.135986,1174.997314 2377.717529,1177.383667 2378.095215,1186.017456 
	C2378.487061,1194.971069 2378.108398,1203.992188 2377.518066,1212.947632 
	C2376.450195,1229.146484 2375.335449,1245.357666 2373.593506,1261.493774 
	C2369.968994,1295.065674 2366.419922,1328.661377 2361.760254,1362.096802 
	C2360.273926,1372.762451 2355.880859,1383.147583 2351.928955,1393.315552 
	C2346.064209,1408.405396 2335.110107,1418.937256 2319.678223,1423.861572 
	C2307.393555,1427.781616 2294.883545,1431.461792 2282.194580,1433.564697 
	C2234.152832,1441.526245 2186.001221,1448.826904 2137.883545,1456.327759 
	C2087.815430,1464.132568 2037.755493,1471.990356 1987.661377,1479.623901 
	C1945.743652,1486.011719 1903.764893,1491.998291 1861.843872,1498.364258 
	C1811.419800,1506.021362 1761.026001,1513.876709 1710.625000,1521.684937 
	C1702.646240,1522.920898 1701.490845,1523.916870 1701.743164,1531.907349 
	C1702.403809,1552.824585 1703.295654,1573.737671 1704.401978,1594.635986 
	C1704.804199,1602.233643 1707.924438,1604.449585 1715.405029,1603.575928 
	C1760.787354,1598.276123 1806.173584,1593.008911 1851.545898,1587.624634 
	C1890.017578,1583.059326 1928.481689,1578.428101 1966.932007,1573.686035 
	C2018.521240,1567.323242 2070.090820,1560.799561 2121.675049,1554.397095 
	C2150.930664,1550.765991 2180.230225,1547.475220 2209.453857,1543.605103 
	C2245.884521,1538.780518 2282.267334,1533.588379 2318.651367,1528.419556 
	C2345.866455,1524.553223 2373.072021,1520.613159 2400.242432,1516.447754 
	C2427.756592,1512.229736 2455.221924,1507.692383 2482.709229,1503.299438 
	C2493.956787,1501.501953 2499.530518,1506.100220 2498.112793,1517.299194 
	C2494.951660,1542.273071 2491.755859,1567.269409 2487.495850,1592.071289 
	C2481.437500,1627.343628 2474.699219,1662.507324 2467.685303,1697.604126 
	C2463.650635,1717.794556 2458.843750,1737.895020 2448.191650,1755.920654 
	C2444.645752,1761.921021 2441.029297,1767.953003 2436.760742,1773.437866 
	C2428.384033,1784.200806 2416.804443,1789.826294 2403.531982,1791.731934 
	C2395.679688,1792.859253 2387.702637,1793.355347 2379.765381,1793.591553 
	C2369.441406,1793.899048 2359.098877,1793.817993 2348.769043,1793.639038 
	C2314.511475,1793.045288 2280.253906,1792.404297 2245.999756,1791.641113 
	C2221.740479,1791.100586 2197.485840,1790.330078 2173.229248,1789.667725 
	C2148.639160,1788.996216 2124.048584,1788.355469 2099.459473,1787.656982 
	C2077.201660,1787.024780 2054.946289,1786.317505 2032.688843,1785.670776 
	C2009.099365,1784.985352 1985.508423,1784.350464 1961.919067,1783.660034 
	C1939.994873,1783.018433 1918.072388,1782.324951 1896.148560,1781.668579 
	C1873.558838,1780.992065 1850.968140,1780.343750 1828.378540,1779.662354 
	C1806.787964,1779.011108 1785.195312,1778.415649 1763.609253,1777.635376 
	C1750.676636,1777.167847 1737.751343,1776.459717 1724.829590,1775.736328 
	C1713.577148,1775.106567 1711.451050,1776.875610 1711.722534,1788.650269 
	C1712.197754,1809.245483 1712.882324,1829.838501 1713.747192,1850.421021 
	C1714.217285,1861.610718 1716.408447,1863.182739 1727.614380,1863.719849 
	C1757.118774,1865.134033 1786.615479,1866.718872 1816.107544,1868.373169 
	C1837.629150,1869.580322 1859.143677,1870.928711 1880.651978,1872.354370 
	C1906.113892,1874.041748 1931.556152,1876.037476 1957.025269,1877.599976 
	C1975.915649,1878.758911 1994.842651,1879.312134 2013.740112,1880.369385 
	C2032.604980,1881.424927 2051.449951,1882.833374 2070.310547,1883.971558 
	C2084.887451,1884.851318 2099.485107,1885.408936 2114.056396,1886.365234 
	C2139.187256,1888.014526 2164.297852,1889.975464 2189.430908,1891.588013 
	C2206.657715,1892.693237 2223.910400,1893.382690 2241.146729,1894.343506 
	C2261.343018,1895.469482 2281.533936,1896.695068 2301.727783,1897.864990 
	C2327.563477,1899.361816 2353.409180,1900.698975 2379.232910,1902.378174 
	C2403.368896,1903.947754 2427.471924,1906.020752 2451.607666,1907.595825 
	C2469.164551,1908.741455 2486.754150,1909.378418 2504.322998,1910.355713 
	C2514.587891,1910.926636 2524.851562,1911.594116 2535.091309,1912.494385 
	C2538.012451,1912.751221 2541.009521,1913.619263 2543.687500,1914.833984 
	C2548.331543,1916.940308 2551.212646,1920.637207 2549.990967,1925.972656 
	C2548.963623,1930.458984 2547.623779,1934.991699 2545.628662,1939.120483 
	C2522.486572,1987.010132 2499.544922,2035.002319 2475.795654,2082.590332 
	C2463.496338,2107.235107 2450.890137,2131.724854 2432.927734,2153.166748 
	C2416.683838,2172.557373 2396.966797,2182.486816 2371.876221,2179.604736 
	C2349.189697,2176.999023 2326.610596,2173.327393 2304.072266,2169.593506 
	C2274.983887,2164.774658 2245.983154,2159.426514 2216.944824,2154.307129 
	C2171.911377,2146.367920 2126.891357,2138.350098 2081.840576,2130.511475 
	C2034.829956,2122.331299 1987.779419,2114.381104 1940.764404,2106.226562 
	C1887.876099,2097.052979 1835.013062,2087.734863 1782.128052,2078.541748 
	C1766.136841,2075.761963 1750.111450,2073.179199 1734.098633,2070.524658 
	C1728.183105,2069.544189 1723.158569,2071.667969 1723.550659,2079.726318 
	C1724.761963,2104.619629 1725.373047,2129.541016 1726.399780,2154.444092 
	C1726.649780,2160.506104 1728.737549,2162.216064 1736.033081,2163.641113 
	C1750.024902,2166.373535 1764.043945,2168.969238 1778.020386,2171.777588 
	C1846.945190,2185.625000 1915.854980,2199.546631 1984.779175,2213.397217 
	C2039.399536,2224.373291 2094.056641,2235.168945 2148.655029,2246.252930 
	C2222.420654,2261.227539 2296.139893,2276.431152 2369.891602,2291.473633 
	C2396.859131,2296.974121 2423.866211,2302.280762 2450.846924,2307.717041 
	C2453.440674,2308.239746 2456.024902,2308.911133 2458.528564,2309.762939 
	C2467.905029,2312.954102 2470.085693,2317.551514 2465.469727,2326.399414 
	C2461.945312,2333.155762 2457.985840,2339.858643 2453.194824,2345.751953 
	C2427.842041,2376.936279 2402.635498,2408.261719 2376.430664,2438.722656 
	C2359.744873,2458.118652 2341.703613,2476.385498 2323.726562,2494.622559 
	C2308.875977,2509.687744 2291.404053,2521.025146 2271.464111,2528.604980 
	C2248.222900,2537.439697 2224.957764,2536.045654 2202.183105,2528.229980 
	C2175.825684,2519.184570 2149.798096,2509.101562 2123.937012,2498.700195 
	C2040.756958,2465.245361 1957.741089,2431.382080 1874.617432,2397.787109 
	C1833.366089,2381.114990 1792.017334,2364.683838 1750.711548,2348.146973 
	C1749.786865,2347.777100 1748.850586,2347.435547 1747.913208,2347.099121 
	C1737.609985,2343.399170 1733.708374,2346.381836 1734.111450,2357.236572 
	C1734.949951,2379.819824 1735.971313,2402.406982 1736.150391,2424.998535 
	C1736.218750,2433.623779 1739.614014,2438.139160 1747.270874,2441.481934 
	C1834.608032,2479.611572 1921.801270,2518.070557 2009.128052,2556.224121 
	C2060.851807,2578.822754 2112.761475,2600.996094 2164.538086,2623.474365 
	C2169.995361,2625.843506 2175.402832,2628.557129 2180.331787,2631.859375 
	C2187.724854,2636.812744 2188.476562,2642.163330 2181.981689,2648.160400 
	C2176.684326,2653.051514 2170.567139,2657.607178 2164.011475,2660.485352 
	C2137.569824,2672.093018 2111.106689,2683.757812 2084.112061,2693.976074 
	C2042.815186,2709.607910 2001.142700,2724.261475 1959.485352,2738.920166 
	C1941.954590,2745.089111 1924.025635,2750.118652 1906.333008,2755.837158 
	C1888.693237,2761.538574 1872.609009,2757.334473 1858.079468,2747.316895 
	C1845.527832,2738.663330 1833.197266,2729.440430 1821.991089,2719.139648 
	C1803.121216,2701.794434 1785.195557,2683.419922 1766.937866,2665.412109 
	C1764.346436,2662.856201 1762.326172,2659.708496 1759.668091,2657.236328 
	C1756.995972,2654.750732 1753.440674,2651.863525 1750.002441,2654.402344 
	C1747.755127,2656.061523 1746.195435,2659.937256 1746.047119,2662.906006 
	C1745.649536,2670.863525 1746.022583,2678.873779 1746.374146,2686.850586 
	C1746.885498,2698.447754 1747.838989,2710.026855 1748.259521,2721.626221 
	C1749.078003,2744.211426 1749.447754,2766.814209 1750.402466,2789.393066 
	C1751.172485,2807.606201 1752.579224,2825.792236 1753.600098,2843.995850 
	C1753.991211,2850.969238 1754.012451,2857.962402 1754.346069,2864.939941 
	C1755.645874,2892.123535 1756.839111,2919.313477 1758.381104,2946.483643 
	C1760.204102,2978.599854 1762.300537,3010.701172 1764.367920,3042.802979 
	C1765.603760,3061.991211 1766.908447,3081.176025 1768.363647,3100.348633 
	C1770.821411,3132.730225 1773.414062,3165.101807 1775.967651,3197.476074 
	C1778.078369,3224.238525 1780.168457,3251.002441 1782.365967,3277.757812 
	C1783.068237,3286.308105 1784.084839,3294.832764 1785.062866,3304.397461 
	C1796.245239,3302.734619 1807.345947,3301.532471 1818.259888,3299.381836 
	C1859.887451,3291.178711 1901.577393,3283.227783 1943.013672,3274.133057 
	C1994.572021,3262.816895 2045.454590,3248.800781 2095.904297,3233.239746 
	C2152.106201,3215.904785 2207.424561,3196.099609 2261.767822,3173.624023 
	C2316.762939,3150.878906 2370.585449,3125.643066 2423.009277,3097.407471 
	C2472.821289,3070.578613 2521.286621,3041.550537 2568.095703,3009.793945 
	C2624.551514,2971.493408 2678.532715,2929.965088 2729.170410,2884.205811 
	C2749.400391,2865.925049 2769.595703,2847.555664 2788.936523,2828.350098 
	C2851.122070,2766.598877 2907.486572,2699.866943 2957.976807,2628.209229 
	C2995.563965,2574.864258 3029.441895,2519.264404 3060.021484,2461.603760 
	C3106.394043,2374.163330 3143.887451,2283.045654 3173.845947,2188.790283 
	C3194.574463,2123.574463 3211.205566,2057.300293 3224.253418,1990.119873 
	C3233.354248,1943.263184 3241.243652,1896.221191 3246.324951,1848.744873 
	C3249.144531,1822.400024 3252.023438,1796.053345 3254.227295,1769.653320 
	C3255.996338,1748.465210 3256.789795,1727.195801 3258.568359,1705.005371 
	C3259.120361,1704.048218 3260.000000,1704.000000 3260.000000,1704.000000 
	C3260.000000,2247.861572 3260.000000,2791.722900 3260.000000,3336.000000 
	C2659.291504,3336.000000 2058.583008,3336.000000 1457.081055,3335.583008 
	C1456.287354,3335.165771 1456.434326,3334.295898 1456.434326,3334.295898 
z"/>
<path fill="#FEFEFE" opacity="1.000000" stroke="none" 
	d="
M2.000000,66.937317 
	C3.823152,66.521057 5.854675,66.686943 7.438424,67.616074 
	C34.204056,83.318573 59.472107,101.175987 81.449776,123.122719 
	C110.320366,151.952667 131.233643,186.110046 145.626312,224.227737 
	C161.414551,266.041443 170.970428,309.396545 176.237701,353.674469 
	C179.483780,380.961853 182.316360,408.330780 184.179626,435.741608 
	C186.250076,466.200562 188.143753,496.747803 188.170334,527.258240 
	C188.826019,1279.723145 189.242935,2032.188232 189.580536,2784.653320 
	C189.591721,2809.572754 189.138702,2834.546631 187.478561,2859.399902 
	C184.873810,2898.394531 181.907730,2937.404297 177.534576,2976.231689 
	C172.027725,3025.124756 162.008270,3073.126465 143.859467,3119.150146 
	C129.526901,3155.496826 109.246628,3188.072510 81.598465,3215.656250 
	C58.436886,3238.763916 31.927607,3257.666992 2.679016,3273.817871 
	C2.000000,2205.291504 2.000000,1136.583130 2.000000,66.937317 
z"/>
<path fill="#FFFFFF" opacity="1.000000" stroke="none" 
	d="
M3258.355225,1481.827148 
	C3257.460693,1465.583496 3257.077393,1449.292114 3255.563965,1433.106445 
	C3252.542236,1400.792725 3249.849854,1368.401245 3245.267090,1336.292480 
	C3239.887451,1298.597656 3233.299316,1261.041626 3226.048096,1223.655640 
	C3215.869385,1171.175903 3202.208252,1119.532959 3186.275146,1068.484863 
	C3169.436768,1014.534912 3149.611816,961.732910 3126.855469,910.005981 
	C3098.560059,845.689087 3065.446777,783.970032 3027.929932,724.568726 
	C2989.861328,664.294128 2947.050293,607.576355 2900.197266,553.910339 
	C2886.424805,538.134827 2871.758057,523.134155 2857.358643,507.913177 
	C2801.908691,449.299500 2740.884033,397.042633 2676.008545,349.196289 
	C2619.451172,307.484802 2560.002441,270.353333 2498.262695,236.823593 
	C2435.103760,202.522949 2369.883545,172.676025 2302.866943,146.814438 
	C2239.328857,122.295082 2174.606201,101.350174 2108.833252,83.563904 
	C2044.742798,66.232628 1979.973877,52.010132 1914.611694,40.638462 
	C1876.447021,33.998608 1838.015625,28.762493 1799.584961,23.821220 
	C1767.734863,19.726042 1735.740479,16.652983 1703.753662,13.748976 
	C1676.362061,11.262160 1648.903687,9.441587 1621.449829,7.728641 
	C1598.273438,6.282573 1575.060913,5.413815 1550.885010,3.622847 
	C1549.905640,2.956161 1550.000000,2.000000 1550.000000,2.000000 
	C2119.843750,2.000000 2689.687256,2.000000 3260.000000,2.000000 
	C3260.000000,494.708344 3260.000000,987.416870 3259.602539,1480.890503 
	C3259.204834,1481.655640 3258.355225,1481.827148 3258.355225,1481.827148 
z"/>
<path fill="#A9A9A9" opacity="1.000000" stroke="none" 
	d="
M1549.063477,2.000000 
	C1550.000000,2.000000 1549.905640,2.956161 1549.977905,3.431095 
	C1537.700195,3.735863 1525.350220,3.565697 1512.500122,2.697765 
	C1524.042358,2.000000 1536.084595,2.000000 1549.063477,2.000000 
z"/>
<path fill="#404040" opacity="1.000000" stroke="none" 
	d="
M1455.479858,3334.150146 
	C1456.434326,3334.295898 1456.287354,3335.165771 1456.143677,3335.583008 
	C1443.957642,3336.000000 1431.915405,3336.000000 1418.936523,3336.000000 
	C1420.720703,3335.336426 1423.428589,3334.169922 1426.164307,3334.100830 
	C1435.612793,3333.862061 1445.070923,3334.006104 1455.479858,3334.150146 
z"/>
<path fill="#A8A8A8" opacity="1.000000" stroke="none" 
	d="
M3260.000000,1703.083862 
	C3260.000000,1704.000000 3259.120361,1704.048218 3258.681396,1704.083008 
	C3258.367188,1697.069580 3258.491943,1690.021240 3259.308594,1682.486572 
	C3260.000000,1688.722534 3260.000000,1695.445190 3260.000000,1703.083862 
z"/>
<path fill="#A6A6A6" opacity="1.000000" stroke="none" 
	d="
M3258.193359,1482.717407 
	C3258.355225,1481.827148 3259.204834,1481.655640 3259.602539,1481.827881 
	C3260.000000,1488.061157 3260.000000,1494.122437 3260.000000,1501.091797 
	C3255.895752,1496.238281 3258.906494,1489.714966 3258.193359,1482.717407 
z"/>
</svg>