<?xml version="1.0" standalone="no"?>
<!DOCTYPE svg PUBLIC "-//W3C//DTD SVG 20010904//EN"
 "http://www.w3.org/TR/2001/REC-SVG-20010904/DTD/svg10.dtd">
<svg version="1.0" xmlns="http://www.w3.org/2000/svg"
 width="2000.000000pt" height="2540.000000pt" viewBox="0 0 2000.000000 2540.000000"
 preserveAspectRatio="xMidYMid meet">

<g transform="translate(0.000000,2540.000000) scale(0.100000,-0.100000)"
fill="#000000" stroke="none">
<path d="M8170 25390 c-2324 -39 -4419 -138 -6430 -306 -604 -50 -1637 -152
-1718 -170 l-22 -4 2 -7148 3 -7147 23 -175 c42 -330 73 -545 112 -780 455
-2725 1654 -4985 3550 -6691 1236 -1111 2757 -1976 4447 -2529 585 -191 1237
-352 1703 -420 l156 -23 309 62 c1252 249 2382 632 3475 1177 1152 575 2124
1268 2981 2124 1824 1823 2908 4236 3219 7168 20 193 20 209 20 7287 l0 7094
-32 6 c-18 2 -233 23 -478 45 -2622 235 -4840 357 -7610 421 -589 13 -3084 19
-3710 9z m365 -1314 c315 -40 594 -106 855 -203 108 -40 339 -148 418 -196
l52 -31 0 -3004 c0 -2402 -3 -3002 -12 -2994 -7 5 -69 36 -138 67 -630 289
-1362 453 -1850 416 -309 -24 -629 -82 -1540 -279 -658 -143 -1034 -210 -1405
-251 -321 -36 -678 -51 -834 -35 l-61 7 0 3063 c0 2445 3 3064 13 3064 6 0 95
-9 197 -20 382 -40 644 -54 1025 -54 520 0 741 26 1010 120 611 214 998 304
1475 344 154 13 653 4 795 -14z m4003 -2 c185 -24 289 -50 577 -144 463 -151
801 -225 1270 -279 336 -39 480 -46 940 -45 423 0 668 12 878 40 l47 7 0
-3051 0 -3051 -57 -7 c-85 -10 -436 3 -678 26 -500 47 -966 122 -2045 330
-1165 225 -1168 225 -1525 225 -291 -1 -431 -12 -675 -56 -408 -72 -817 -223
-1075 -395 l-50 -33 -3 2987 c-2 2788 -1 2988 15 2999 25 19 309 129 473 185
484 163 933 255 1375 282 112 7 417 -4 533 -20z m-10246 -1489 c156 -44 287
-153 358 -298 57 -116 74 -191 74 -322 0 -192 -62 -352 -183 -473 -120 -120
-265 -176 -456 -175 -192 0 -338 55 -454 172 -125 125 -184 277 -184 471 0
200 55 341 183 471 167 170 410 227 662 154z m14281 -244 c190 -76 374 -113
557 -113 141 1 215 13 418 74 121 35 149 40 237 39 171 0 305 -38 430 -122
160 -107 254 -262 310 -514 l7 -30 -26 28 c-57 62 -182 93 -344 84 -136 -6
-173 -20 -508 -183 -647 -315 -904 -405 -1126 -396 l-38 2 0 580 c0 319 2 580
5 580 2 0 38 -13 78 -29z m-12835 -448 l2 -373 -380 0 -380 0 0 375 0 375 378
-2 377 -3 3 -372z m-1493 -1898 c210 -44 379 -201 452 -420 24 -71 27 -95 27
-215 0 -119 -3 -144 -27 -215 -66 -200 -202 -339 -391 -402 -71 -23 -97 -26
-216 -27 -219 0 -347 48 -481 183 -196 196 -244 500 -121 756 22 44 60 106 85
137 81 98 224 179 368 207 71 14 228 12 304 -4z m14240 -35 c13 -21 110 -62
193 -81 69 -16 136 -22 318 -26 248 -6 368 1 700 43 164 20 213 23 270 15 215
-31 359 -146 470 -376 36 -74 100 -272 91 -281 -1 -1 -38 15 -82 37 -109 53
-190 72 -310 73 -134 0 -207 -24 -360 -115 -163 -97 -413 -218 -570 -274 -217
-78 -479 -138 -662 -152 l-83 -6 0 577 c0 353 4 576 9 576 6 0 13 -5 16 -10z
m-12745 -660 l0 -370 -380 0 -380 0 0 370 0 370 380 0 380 0 0 -370z m6498
-2456 c51 -12 163 -53 250 -90 381 -161 456 -185 597 -186 99 -1 172 13 254
48 29 13 55 24 57 24 2 0 4 -24 4 -52 -1 -87 -41 -155 -122 -206 l-48 -29 38
-7 c197 -32 371 40 477 197 20 30 36 44 40 37 17 -28 18 -171 0 -235 -47 -174
-188 -268 -479 -320 l-98 -18 48 -21 c79 -34 113 -55 155 -93 54 -49 68 -78
85 -186 18 -114 36 -171 74 -230 57 -91 165 -139 261 -118 24 5 45 9 46 8 6
-7 -48 -105 -68 -124 -30 -27 -90 -53 -124 -53 -39 0 -129 35 -181 69 -80 55
-84 27 -14 -102 58 -109 73 -165 96 -352 9 -77 24 -172 34 -211 38 -146 118
-261 242 -344 58 -38 58 -39 36 -54 -13 -9 -43 -16 -71 -16 -73 0 -138 39
-249 148 -54 53 -101 92 -105 89 -3 -4 12 -46 35 -94 22 -49 45 -112 51 -141
23 -113 8 -288 -40 -462 -20 -71 -95 -279 -103 -288 -13 -12 -99 65 -131 118
-54 88 -109 155 -166 200 -100 79 -104 44 -14 -101 36 -57 79 -140 96 -184 77
-199 119 -525 89 -686 -14 -72 -22 -77 -67 -46 -40 28 -49 41 -127 172 -26 44
-67 103 -92 130 l-44 50 0 -45 c0 -100 46 -254 118 -394 39 -75 67 -112 177
-227 72 -76 161 -180 198 -231 79 -111 165 -272 204 -383 26 -76 27 -89 26
-240 -1 -112 -9 -215 -27 -345 -14 -102 -35 -259 -47 -350 -12 -91 -23 -167
-25 -169 -2 -2 -18 5 -36 16 -53 31 -117 121 -203 284 -44 84 -85 154 -92 156
-18 6 -25 -51 -13 -119 33 -195 143 -415 280 -562 63 -67 75 -95 115 -271 43
-189 44 -402 1 -461 -13 -17 -15 -16 -37 8 -13 14 -57 85 -98 158 -72 127
-138 206 -164 197 -17 -6 -16 -13 56 -227 107 -319 147 -533 147 -790 0 -247
-29 -381 -144 -671 -42 -107 -66 -155 -70 -143 -3 11 -39 165 -81 344 -93 401
-156 640 -168 640 -26 0 -150 -152 -266 -323 -165 -245 -291 -393 -315 -370
-3 3 -6 35 -6 69 0 252 -138 900 -279 1316 -74 215 -170 413 -191 392 -22 -22
-559 -1457 -605 -1615 -40 -139 -79 -335 -96 -479 -15 -137 -15 -438 0 -565
23 -183 79 -411 136 -547 18 -45 -9 -9 -60 76 -174 297 -296 690 -346 1116
-18 154 -15 462 5 593 42 269 135 460 256 528 47 27 56 57 46 159 -13 139 -69
260 -120 260 -21 0 -23 -7 -39 -130 -19 -144 -39 -207 -91 -286 l-35 -53 -43
17 c-63 24 -141 106 -164 172 -29 84 -24 233 13 380 28 110 32 119 100 209
116 154 193 320 193 416 0 52 -20 103 -52 135 -17 17 -37 30 -45 28 -8 -2 -30
-41 -49 -87 -18 -46 -48 -106 -65 -133 -30 -46 -110 -118 -131 -118 -16 0 -77
144 -103 242 -106 401 6 902 304 1349 49 74 125 177 170 229 66 76 81 100 81
127 0 27 -4 33 -21 33 -28 0 -47 -11 -159 -95 -102 -75 -164 -110 -217 -121
-31 -6 -32 -6 -39 42 -15 103 11 348 53 494 40 138 123 292 213 393 126 142
322 239 539 268 l93 12 -72 26 c-82 30 -146 79 -167 129 -8 19 -13 35 -11 37
2 2 74 15 162 30 201 34 308 64 424 121 120 58 209 140 254 232 30 60 33 77
36 173 5 145 -2 154 -58 76 -67 -93 -145 -171 -216 -217 -62 -41 -164 -80
-207 -80 -45 0 -100 23 -135 55 l-36 33 44 22 c72 36 104 64 134 120 63 115 7
236 -131 286 -51 18 -167 17 -248 -1 -88 -21 -153 -8 -234 46 -64 43 -127 123
-137 177 l-7 32 44 -20 c95 -43 229 -12 399 90 206 124 380 139 562 48 91 -46
201 -143 275 -244 25 -35 50 -61 54 -58 21 13 41 120 36 187 -17 198 -193 347
-482 407 -54 11 -58 14 -77 58 -83 187 -233 319 -419 367 -35 10 -115 20 -178
24 l-113 6 -23 62 c-83 220 -238 310 -418 243 -93 -35 -196 -152 -197 -225 0
-11 -5 -27 -10 -35 -16 -25 -133 99 -178 189 -35 70 -37 81 -37 165 1 108 21
170 87 273 75 114 214 241 316 287 73 33 97 7 171 -185 62 -160 127 -221 217
-205 45 9 44 22 -12 137 -80 162 -102 257 -74 310 16 29 64 49 120 49 49 0 55
-3 110 -56 81 -77 101 -74 152 21 50 93 127 164 231 214 175 84 337 98 545 45z
m-3989 -365 c25 -6 83 -29 128 -50 132 -63 235 -180 300 -340 89 -221 114
-537 67 -857 l-16 -112 25 -42 c14 -24 38 -53 54 -64 86 -63 239 -114 345
-114 32 0 58 -3 58 -6 0 -3 -19 -42 -42 -86 -50 -97 -118 -174 -190 -213 -48
-27 -61 -30 -148 -30 -85 0 -109 4 -220 42 -69 22 -136 44 -149 46 -39 9 -70
-10 -90 -55 -20 -46 -61 -88 -152 -156 -80 -60 -156 -144 -182 -199 -18 -40
-22 -66 -22 -158 0 -136 15 -182 84 -248 60 -59 75 -109 70 -240 l-4 -88 -40
-33 -40 -34 0 -104 c0 -128 21 -182 86 -225 41 -27 47 -28 168 -27 102 0 145
5 226 26 414 108 420 110 531 115 139 7 173 -3 323 -97 127 -80 158 -94 223
-104 39 -6 50 -4 67 13 27 27 35 106 22 220 -8 72 -16 100 -34 125 -14 17 -84
66 -158 110 -137 82 -222 154 -254 216 -41 79 -26 238 41 432 41 119 148 343
194 407 l33 45 26 -91 c84 -283 203 -424 552 -656 244 -163 326 -230 401 -328
127 -166 203 -393 202 -599 0 -84 -5 -110 -42 -225 -23 -71 -50 -166 -58 -209
-30 -146 -4 -306 70 -429 l35 -58 -35 -46 c-81 -106 -162 -316 -209 -543 -36
-172 -46 -476 -21 -631 32 -189 95 -344 193 -471 l45 -59 -26 -97 c-97 -370
-23 -691 201 -878 32 -27 59 -49 59 -49 1 0 -13 -45 -31 -100 -45 -133 -59
-247 -52 -420 6 -146 30 -291 71 -435 14 -46 23 -86 20 -89 -11 -11 -57 27
-83 68 -16 25 -62 125 -101 221 -91 225 -193 431 -268 545 -259 390 -631 607
-1137 665 -55 6 -122 10 -150 8 -48 -3 -50 -4 -59 -43 -6 -25 -5 -64 2 -108
13 -83 50 -143 196 -317 148 -177 195 -287 217 -516 11 -114 4 -343 -12 -406
-19 -73 -59 -53 -162 79 -48 62 -105 121 -155 161 -116 91 -195 180 -236 264
-41 86 -79 212 -96 321 -7 43 -16 80 -20 82 -13 8 -162 -129 -231 -211 -246
-294 -349 -621 -319 -1014 6 -73 9 -134 7 -136 -1 -2 -31 72 -66 164 -35 92
-100 258 -144 370 -75 189 -80 205 -66 227 8 13 118 155 244 316 417 531 451
579 587 829 259 475 368 720 318 720 -59 0 -441 -489 -1064 -1362 -109 -153
-201 -278 -205 -278 -4 0 -29 51 -56 113 -72 167 -163 352 -201 408 l-33 50
125 157 c246 309 341 458 492 777 183 384 276 614 258 632 -21 21 -197 -234
-581 -837 -191 -299 -344 -531 -389 -585 l-24 -30 -94 91 c-100 98 -144 127
-186 122 -26 -3 -27 -6 -34 -76 -4 -40 -21 -130 -38 -201 -24 -102 -30 -151
-30 -238 l0 -110 -82 -99 c-189 -227 -680 -678 -708 -648 -9 10 -50 460 -50
544 l0 56 186 209 c227 255 414 470 477 548 93 116 483 748 594 964 100 194
85 211 -57 66 -156 -160 -497 -578 -1060 -1296 -102 -130 -188 -236 -191 -237
-4 0 -10 12 -14 28 -16 64 -124 218 -237 338 l-48 51 156 219 c201 282 407
592 478 719 70 126 261 538 310 669 22 57 36 111 34 129 l-3 32 -39 -40 c-96
-96 -370 -498 -832 -1218 -126 -197 -238 -369 -249 -382 l-20 -25 -49 18 c-27
11 -53 27 -59 37 -20 37 32 406 119 845 45 226 53 395 20 395 -28 0 -96 -132
-145 -280 -76 -231 -132 -500 -171 -815 -13 -96 -23 -176 -24 -177 -1 -1 -49
-9 -106 -18 -116 -19 -242 -56 -279 -84 -23 -17 -23 -20 -12 -68 18 -73 45
-111 94 -132 72 -31 128 -108 163 -226 26 -87 22 -240 -12 -465 -35 -231 -39
-457 -11 -560 26 -97 70 -180 148 -277 65 -83 69 -91 67 -133 l-3 -45 -90 -1
c-49 0 -108 -4 -130 -8 -57 -11 -132 -54 -170 -99 -18 -21 -35 -35 -38 -30
-17 28 -124 623 -151 843 -34 270 -38 349 -43 760 -8 669 18 1131 96 1690 63
448 72 598 38 588 -20 -6 -105 -185 -249 -523 -135 -316 -199 -470 -681 -1650
-281 -687 -420 -1019 -480 -1147 l-42 -88 -31 19 c-39 24 -80 104 -95 186 -18
96 -5 374 25 546 162 933 724 2239 1276 2964 46 60 86 124 91 142 18 80 -20
95 -98 37 -26 -19 -203 -192 -393 -383 -590 -594 -906 -826 -1223 -896 -86
-19 -296 -18 -330 1 -15 9 13 40 205 230 123 120 419 403 658 629 792 745
1037 990 1140 1137 91 131 71 126 -245 -52 -600 -338 -1135 -440 -1627 -308
-43 12 -78 24 -78 27 0 3 97 57 215 120 977 518 1561 900 1877 1229 106 111
164 190 210 287 29 63 50 175 32 175 -5 0 -115 -53 -244 -118 -742 -373 -1335
-477 -1775 -311 -71 26 -88 10 169 161 473 276 1620 992 2595 1619 431 278
446 286 480 278 65 -15 185 -10 252 11 51 15 169 81 169 93 0 2 -44 -1 -97 -6
-54 -5 -152 -6 -218 -4 -244 10 -354 83 -355 237 0 70 12 115 57 212 l36 77
36 -72 c60 -119 153 -173 319 -184 175 -12 376 34 835 191 273 94 385 124 507
140 52 6 217 -3 269 -15z m8706 -13 c237 -44 544 -138 792 -245 170 -73 286
-108 407 -122 83 -9 124 -8 228 7 l36 5 -7 -33 c-26 -112 -94 -157 -270 -177
-105 -12 -131 -23 -131 -55 0 -33 17 -44 96 -62 302 -70 385 -99 639 -224 346
-171 572 -350 471 -376 -12 -3 -46 -1 -75 4 -28 5 -51 7 -51 4 0 -3 109 -116
243 -251 133 -135 280 -293 326 -351 56 -70 258 -274 612 -618 291 -283 529
-518 529 -524 0 -7 -22 -9 -63 -6 -219 18 -705 357 -1354 945 -100 90 -185
164 -190 164 -19 -1 -11 -50 16 -96 49 -85 176 -227 512 -575 741 -767 1056
-1136 1345 -1575 95 -144 234 -381 234 -398 0 -32 -249 43 -503 153 -313 135
-523 264 -673 414 -154 155 -282 334 -618 868 -315 499 -447 658 -548 658 -26
0 -41 -5 -45 -15 -3 -10 69 -139 189 -338 107 -177 306 -506 442 -731 690
-1140 843 -1440 981 -1920 100 -349 122 -507 137 -961 11 -376 2 -892 -22
-1145 -37 -390 -109 -649 -195 -701 -37 -23 -42 -23 -54 -1 -33 61 -231 829
-436 1692 -236 990 -331 1345 -474 1780 -116 348 -181 511 -306 765 -107 218
-244 438 -330 530 l-46 50 5 -37 c2 -20 43 -137 91 -260 271 -699 397 -1059
519 -1485 176 -614 270 -1133 302 -1659 l6 -111 -31 -6 c-66 -14 -312 -112
-456 -182 -185 -91 -290 -159 -376 -245 l-66 -65 5 210 c13 600 -91 1333 -283
2000 -73 254 -132 426 -185 541 -64 140 -84 125 -76 -56 7 -157 27 -323 121
-975 78 -545 99 -717 93 -735 -2 -6 -62 62 -133 152 -598 750 -995 1198 -1061
1198 -53 0 58 -230 319 -665 184 -307 310 -468 543 -695 71 -69 178 -165 238
-214 l109 -90 -6 -245 c-3 -135 -11 -279 -17 -320 -12 -75 -56 -260 -64 -268
-33 -33 -205 154 -804 872 -653 783 -833 984 -923 1031 -27 13 -30 13 -36 -2
-11 -28 26 -122 121 -308 105 -206 310 -567 365 -641 106 -145 381 -429 831
-857 168 -160 320 -306 338 -324 l32 -34 -35 -70 c-75 -149 -189 -312 -276
-397 l-44 -42 -185 140 c-152 116 -260 201 -417 326 -9 7 -24 65 -38 152 -27
154 -43 202 -82 244 -52 54 -121 54 -239 2 l-58 -26 -45 53 c-419 483 -762
813 -812 782 -54 -33 212 -521 405 -745 36 -42 108 -111 161 -154 52 -43 95
-80 95 -82 0 -3 -24 -44 -54 -92 -93 -151 -151 -275 -191 -411 -13 -41 -27
-76 -33 -78 -17 -5 -117 85 -385 346 -237 231 -364 338 -391 329 -36 -13 29
-203 114 -334 75 -115 239 -263 493 -447 60 -43 111 -85 114 -92 7 -20 -102
-351 -143 -434 -27 -54 -57 -90 -137 -166 -124 -118 -389 -347 -638 -550 -261
-213 -279 -227 -279 -220 0 17 79 204 127 300 186 372 399 595 738 771 139 72
137 71 129 109 -20 98 -123 221 -204 245 -78 23 -282 14 -551 -25 l-46 -6 -6
113 c-3 77 -22 199 -56 374 -59 299 -88 498 -99 672 l-7 122 -65 -22 c-122
-41 -305 -183 -416 -321 -36 -45 -66 -90 -68 -101 -3 -11 -9 -83 -16 -161 -13
-170 -47 -342 -87 -444 -16 -42 -65 -132 -110 -200 -99 -154 -141 -236 -188
-370 -19 -57 -38 -106 -40 -108 -8 -8 -56 100 -72 161 -13 48 -16 104 -15 252
2 285 -16 389 -81 485 -116 169 -163 242 -196 309 -79 156 -127 343 -155 604
l-14 129 38 39 c50 52 106 161 130 255 41 160 22 399 -50 613 -28 83 -30 99
-30 237 0 183 12 321 52 624 41 306 44 527 10 665 -47 187 -154 359 -343 549
-106 106 -108 109 -95 135 27 51 47 138 71 306 14 94 25 175 25 181 0 7 35 -3
82 -24 152 -65 266 -55 347 33 49 53 67 88 120 234 73 199 96 232 207 304 86
56 168 141 196 204 45 99 24 230 -62 392 -22 41 -38 76 -36 78 2 2 36 -8 77
-23 191 -69 302 -151 357 -264 21 -45 26 -69 26 -130 0 -93 -18 -155 -97 -329
-50 -112 -61 -146 -62 -191 0 -53 1 -56 35 -73 31 -16 54 -18 185 -14 290 9
471 91 600 272 59 83 80 136 110 291 40 200 86 283 256 460 113 117 129 145
129 232 0 93 -65 165 -184 205 -108 36 -109 40 -70 297 5 33 -7 22 -173 -147
-213 -218 -240 -235 -378 -240 -80 -3 -99 0 -170 26 -44 16 -111 41 -150 55
-119 43 -233 32 -367 -35 l-58 -29 0 55 c0 115 40 158 206 221 336 127 534
282 534 417 0 54 -29 137 -57 163 -25 23 -26 27 -20 105 4 53 15 99 30 133 36
79 170 250 287 367 90 90 118 112 194 150 86 42 93 44 180 43 74 0 102 -5 151
-25 l60 -26 75 52 c41 29 90 60 109 70 50 25 237 94 301 110 72 19 331 13 455
-9z m-6945 -768 c0 -101 43 -210 107 -270 36 -34 113 -72 183 -89 67 -17 346
-17 602 -1 374 24 572 -21 712 -162 50 -51 129 -166 113 -166 -3 0 -24 11 -48
24 -24 14 -80 35 -124 48 -70 20 -101 23 -245 22 -171 -1 -217 -8 -655 -91
-117 -22 -170 -26 -320 -27 -163 -1 -186 1 -246 22 -118 41 -203 110 -269 219
-33 54 -35 62 -35 148 0 82 3 97 33 157 30 62 161 218 183 218 5 0 9 -24 9
-52z m2134 -6065 c87 -269 136 -501 156 -740 15 -179 2 -330 -41 -498 -28
-106 -32 -141 -36 -300 -5 -179 -1 -228 41 -545 14 -105 12 -109 41 72 59 370
217 708 445 951 71 76 212 197 230 197 4 0 11 -20 14 -45 4 -25 25 -107 47
-183 136 -471 153 -554 153 -777 1 -298 -58 -464 -304 -860 -51 -82 -117 -190
-147 -239 -108 -175 -131 -274 -138 -596 -3 -124 -7 -247 -9 -273 -2 -28 1
-44 6 -39 5 5 36 98 69 207 122 401 222 615 390 830 111 143 214 332 268 494
33 99 64 244 105 501 29 181 62 301 116 423 40 91 141 250 208 326 l39 44 12
-64 c16 -78 31 -115 81 -199 53 -90 71 -156 77 -295 13 -295 -88 -583 -372
-1065 -100 -168 -118 -211 -97 -223 12 -8 110 21 170 50 74 37 183 140 243
231 51 78 101 195 128 304 10 37 20 70 23 73 8 8 74 -152 95 -228 9 -34 17
-100 17 -147 1 -122 -22 -165 -134 -244 -117 -82 -267 -234 -319 -323 -24 -40
-55 -107 -69 -150 -22 -68 -26 -96 -26 -213 -1 -218 -7 -216 137 -48 293 343
381 464 476 655 93 186 123 315 125 538 1 155 3 162 32 230 17 39 70 133 118
209 48 77 105 172 126 210 93 170 165 409 195 641 18 144 37 197 104 285 39
52 122 129 163 151 17 9 18 3 18 -110 0 -96 8 -168 42 -358 36 -207 41 -258
42 -393 0 -129 -3 -170 -22 -244 -24 -96 -82 -228 -131 -300 -17 -24 -31 -47
-31 -50 0 -21 55 5 166 80 200 134 308 183 452 204 81 12 198 3 258 -21 28
-10 26 -12 -56 -33 -295 -78 -483 -241 -640 -556 -23 -46 -82 -182 -131 -303
-198 -487 -314 -659 -576 -853 -123 -91 -167 -143 -210 -244 -14 -36 -33 -73
-41 -82 -14 -16 -13 -18 12 -18 51 0 181 32 270 66 266 103 530 314 832 665
l138 161 186 125 c386 261 534 391 654 570 117 176 269 530 328 763 38 153 55
202 94 281 35 70 121 188 204 279 41 45 52 52 60 40 55 -83 65 -418 20 -680
-44 -261 -141 -612 -203 -735 -59 -119 -154 -246 -306 -410 -90 -97 -126 -144
-118 -151 17 -18 627 286 877 435 536 322 810 587 1099 1061 144 238 279 436
340 502 108 118 352 288 582 407 125 65 278 130 342 145 28 7 28 6 13 -21 -8
-15 -45 -64 -82 -108 -174 -209 -209 -280 -230 -471 -32 -299 -102 -497 -279
-789 -74 -122 -75 -138 -9 -143 33 -2 56 8 147 62 111 66 186 91 235 80 36 -9
102 -43 102 -52 0 -4 -15 -13 -34 -20 -54 -20 -146 -84 -207 -144 -31 -31
-115 -127 -186 -214 -248 -303 -450 -463 -738 -585 -261 -110 -452 -153 -1094
-244 -511 -72 -713 -119 -981 -226 -335 -135 -496 -226 -913 -517 -616 -430
-846 -557 -1182 -647 -153 -41 -275 -113 -275 -161 0 -20 41 -44 75 -44 18 0
60 -17 100 -41 293 -173 473 -226 735 -216 264 9 355 43 889 326 515 272 814
421 848 421 4 0 -52 -60 -123 -132 -72 -73 -211 -223 -311 -333 -398 -442
-549 -550 -963 -687 -401 -134 -813 -201 -1230 -202 -238 0 -353 9 -567 44
-143 24 -191 25 -291 4 -143 -29 -326 -135 -392 -225 -24 -34 -40 -79 -27 -79
1 0 37 7 80 15 151 29 292 13 407 -45 36 -18 97 -64 144 -108 148 -140 374
-274 523 -313 198 -50 356 -2 525 160 103 99 148 131 243 170 112 47 219 64
359 59 105 -4 135 -10 224 -40 123 -42 239 -111 330 -194 l67 -61 -70 -12
c-148 -26 -241 -102 -440 -361 -183 -238 -292 -337 -458 -416 -140 -66 -208
-78 -432 -78 -214 0 -239 3 -356 54 -99 44 -213 110 -444 258 -374 241 -466
292 -599 337 -138 46 -221 30 -287 -58 -44 -60 -59 -105 -59 -186 0 -113 59
-220 241 -436 276 -328 351 -468 336 -634 -10 -103 -61 -198 -161 -296 -185
-183 -360 -211 -601 -96 -108 51 -221 138 -340 263 -89 92 -231 266 -223 273
2 2 48 -12 103 -31 139 -46 268 -67 390 -62 154 6 227 51 246 152 17 92 -24
203 -151 416 -168 279 -207 383 -226 598 -5 69 -9 82 -24 82 -26 0 -90 -54
-290 -240 -223 -208 -355 -321 -499 -429 -465 -346 -835 -424 -1148 -240 -39
23 -158 133 -358 329 -414 408 -597 572 -845 758 -131 99 -327 223 -418 266
-34 16 -62 33 -62 37 0 13 291 22 510 16 547 -15 933 -141 1178 -387 34 -33
91 -106 129 -162 143 -215 302 -333 464 -345 85 -6 155 10 250 57 110 56 201
141 406 381 244 285 313 381 313 436 0 34 -383 177 -595 223 -415 89 -813 73
-1130 -45 -49 -19 -91 -33 -92 -31 -6 5 94 131 179 226 146 164 306 290 463
366 130 64 210 85 347 91 99 5 132 2 214 -17 114 -26 274 -103 379 -182 96
-73 230 -209 311 -318 61 -82 70 -90 81 -74 38 53 -25 261 -126 415 -221 336
-612 529 -1071 530 -162 0 -295 -23 -463 -81 -152 -52 -237 -91 -593 -268
-489 -242 -616 -269 -862 -180 -185 67 -450 219 -687 395 -333 247 -599 511
-767 762 -59 89 -148 248 -148 266 0 4 26 -13 58 -36 483 -350 1030 -559 1467
-561 234 -1 357 31 595 155 283 147 559 203 879 178 331 -26 635 -110 1093
-300 253 -105 326 -128 316 -102 -4 12 -201 188 -300 269 -293 238 -622 384
-1013 449 -137 22 -566 25 -715 5 -312 -43 -569 -104 -701 -166 -127 -60 -203
-79 -319 -79 -172 0 -270 39 -536 214 -198 130 -283 173 -376 192 l-60 12 73
59 c205 164 406 264 606 302 67 12 123 15 238 11 132 -4 170 -10 315 -46 91
-22 176 -41 190 -41 60 0 -137 154 -306 238 -112 56 -159 67 -409 97 -858 101
-1708 283 -2440 522 -160 52 -383 132 -468 168 -44 18 -42 27 20 89 146 146
443 171 812 67 56 -15 100 -27 99 -26 -2 2 -50 38 -108 80 -216 159 -441 415
-525 599 -85 184 -97 317 -51 586 70 411 58 562 -60 737 l-44 66 97 -6 c321
-20 484 -189 547 -567 8 -52 25 -201 36 -330 33 -377 59 -522 118 -666 38 -92
73 -147 140 -216 48 -50 137 -118 155 -118 3 0 -3 21 -14 47 -66 155 -63 324
8 454 27 50 118 158 125 149 3 -3 27 -52 55 -110 139 -286 407 -521 715 -624
l73 -25 38 37 c21 20 53 60 72 87 l34 50 -67 135 c-104 206 -169 430 -203 695
-23 180 -12 756 17 858 17 58 95 -37 198 -243 97 -195 115 -246 196 -560 75
-288 116 -414 181 -550 59 -124 86 -168 194 -315 45 -60 121 -168 171 -240 49
-71 124 -166 168 -210 l79 -80 14 40 c21 56 28 242 14 350 -6 50 -26 171 -42
270 -64 370 -33 593 110 803 42 63 148 182 160 182 5 0 13 -19 20 -41 20 -66
102 -219 154 -286 46 -61 120 -124 202 -173 60 -37 114 -89 136 -131 21 -42
59 -306 59 -414 0 -35 -9 -127 -21 -205 -19 -134 -20 -147 -5 -219 40 -196
147 -322 440 -517 72 -48 176 -120 231 -159 55 -39 233 -143 395 -230 470
-252 674 -376 877 -534 157 -122 331 -306 418 -444 17 -26 33 -47 38 -47 4 0
7 35 7 78 -1 147 -62 272 -205 417 -115 117 -222 196 -635 470 -184 122 -378
255 -431 296 -426 326 -649 632 -735 1006 -32 141 -41 330 -23 478 15 126 14
628 -2 763 -20 175 -75 270 -262 455 -71 70 -126 127 -124 127 3 0 41 -5 83
-11 406 -56 775 -373 1099 -944 181 -318 323 -674 410 -1029 71 -289 118 -368
395 -666 193 -208 304 -342 421 -509 43 -62 79 -109 79 -104 0 5 -20 79 -45
164 -121 411 -189 746 -226 1124 -19 190 -17 634 5 818 59 515 198 942 439
1355 l60 104 13 -30 c7 -17 33 -93 58 -169z m-4955 -1204 c11 -183 26 -268 76
-439 44 -147 52 -200 34 -200 -21 0 -152 118 -238 213 -154 172 -241 310 -241
384 0 53 25 84 170 211 69 60 139 124 155 141 l30 32 2 -88 c2 -48 7 -163 12
-254z m10226 -173 c50 -40 418 -348 443 -371 11 -10 3 -23 -40 -70 -51 -56
-279 -252 -305 -262 -6 -3 -31 8 -55 25 -24 16 -82 50 -130 76 -49 26 -88 52
-88 58 0 5 9 53 19 106 11 54 27 160 36 237 8 77 20 168 26 203 10 56 13 61
28 50 9 -7 39 -30 66 -52z m-77 -785 l53 -38 -78 -63 c-153 -123 -273 -189
-273 -149 0 7 24 65 54 128 29 64 63 138 75 164 l21 48 47 -26 c27 -14 72 -43
101 -64z m1823 -425 c-118 -471 -281 -851 -518 -1208 -101 -152 -153 -186
-202 -134 -96 102 -91 522 9 894 l22 79 121 62 c195 98 403 259 534 412 37 43
69 75 71 69 2 -6 -15 -84 -37 -174z m-13651 -4 c69 -27 160 -62 204 -78 43
-16 84 -38 92 -49 39 -60 91 -309 100 -485 13 -241 -48 -505 -128 -549 -48
-28 -76 -7 -130 94 -59 112 -155 335 -214 497 -44 120 -214 675 -214 697 0 6
37 -9 83 -33 45 -25 138 -67 207 -94z"/>
<path d="M7364 23216 c-225 -71 -394 -286 -435 -554 -40 -261 120 -488 412
-586 95 -32 202 -43 252 -26 21 6 72 36 114 67 42 30 100 70 130 89 59 38 69
67 28 86 -18 8 -49 7 -132 -7 -125 -20 -188 -13 -277 31 -64 31 -155 118 -187
179 -20 38 -21 45 -9 60 18 22 347 334 418 397 l53 47 -71 90 c-102 130 -180
163 -296 127z m4 -175 c18 -27 57 -66 87 -87 30 -22 54 -41 54 -44 1 -14 -278
-292 -286 -287 -6 4 -18 45 -28 91 -24 114 -17 202 20 259 27 40 102 117 114
117 3 0 21 -22 39 -49z"/>
<path d="M8417 23106 c-100 -36 -200 -99 -288 -183 -172 -164 -172 -283 -2
-450 56 -55 70 -74 59 -80 -22 -13 -306 -277 -306 -285 0 -23 193 -115 303
-144 211 -56 534 55 709 244 100 109 103 217 9 325 -42 48 -123 107 -168 122
l-35 12 129 105 c70 58 135 113 143 123 13 16 10 22 -45 71 -136 123 -227 164
-359 164 -60 0 -99 -7 -149 -24z m56 -210 c75 -38 188 -116 184 -127 -1 -3
-31 -30 -66 -60 -64 -52 -66 -53 -130 -53 -100 -1 -169 43 -245 153 -28 39
-28 41 -11 67 9 14 35 34 58 45 59 28 121 20 210 -25z m88 -502 c130 -65 159
-91 159 -144 0 -49 -33 -97 -95 -138 -46 -31 -55 -34 -111 -30 -46 3 -81 14
-137 41 -75 37 -177 119 -177 140 1 15 218 187 236 187 8 0 64 -25 125 -56z"/>
<path d="M6570 23064 c-19 -14 -72 -48 -118 -75 l-82 -50 -28 21 c-15 12 -58
40 -97 61 -38 22 -77 44 -86 51 -13 9 -28 2 -79 -37 -71 -55 -190 -164 -190
-174 0 -4 34 -17 75 -29 46 -14 87 -33 107 -51 l33 -29 0 -377 c0 -323 2 -377
15 -385 16 -11 189 -14 214 -4 14 5 16 51 16 410 l0 404 47 29 48 30 86 -91
86 -90 78 53 c43 30 101 75 129 101 44 40 49 49 40 65 -12 18 -20 19 -59 9
-16 -4 -39 16 -104 89 -46 52 -87 95 -90 95 -3 -1 -22 -12 -41 -26z"/>
<path d="M5602 23018 c-5 -7 -13 -28 -17 -46 -11 -54 -37 -59 -157 -28 -198
50 -361 55 -476 16 -72 -26 -165 -94 -253 -188 -121 -128 -169 -242 -169 -397
1 -176 46 -318 128 -398 69 -68 246 -171 321 -187 92 -19 240 -7 386 31 66 18
139 34 162 36 41 5 43 3 75 -43 49 -72 75 -96 101 -92 37 5 34 49 -7 108 l-36
52 0 234 c0 223 -1 234 -20 244 -13 7 -26 7 -38 1 -15 -8 -20 -27 -26 -98 -8
-112 -37 -175 -118 -259 -87 -91 -165 -128 -267 -129 -99 0 -165 31 -245 115
-86 90 -124 190 -141 375 -8 82 6 151 57 271 39 94 107 167 194 210 51 25 71
29 144 29 74 0 93 -4 150 -31 82 -40 143 -92 168 -147 20 -41 52 -202 52 -258
0 -44 10 -59 39 -59 51 0 51 2 51 325 0 303 -2 325 -36 325 -6 0 -16 -6 -22
-12z"/>
<path d="M9166 22561 c-48 -53 11 -101 137 -108 70 -5 85 -3 97 12 12 15 12
20 -1 43 -16 30 -79 55 -164 67 -43 5 -53 3 -69 -14z"/>
<path d="M9150 22370 c-11 -21 -10 -26 13 -46 30 -25 156 -57 208 -52 30 3 34
6 34 33 0 26 -7 33 -47 53 -30 15 -73 25 -121 29 -71 5 -76 4 -87 -17z"/>
<path d="M7907 21843 c-2 -5 -7 -21 -11 -38 -4 -16 -13 -33 -19 -37 -7 -4 -84
-8 -172 -8 -247 0 -332 -28 -455 -150 -80 -79 -112 -142 -112 -220 0 -139 73
-197 392 -315 220 -81 259 -101 296 -157 72 -107 46 -236 -58 -289 -78 -40
-242 -35 -388 13 -48 15 -76 32 -106 63 -44 45 -87 127 -98 185 -17 86 -43
115 -77 84 -22 -20 -24 -89 -9 -279 15 -179 21 -214 41 -238 23 -29 47 -16 73
40 32 70 55 74 274 42 237 -34 318 -20 409 71 148 147 183 427 73 578 -56 77
-131 111 -321 143 -202 33 -296 74 -320 136 -13 34 20 102 67 138 68 52 120
68 206 63 66 -4 91 -11 160 -46 81 -40 141 -87 185 -147 22 -30 23 -30 38 -10
13 16 15 38 12 105 -4 97 -32 246 -48 267 -13 14 -26 17 -32 6z"/>
<path d="M6699 21758 c-23 -57 -145 -231 -212 -304 -41 -44 -88 -82 -125 -102
-95 -51 -99 -66 -21 -91 20 -6 47 -23 60 -37 l24 -26 -3 -251 c-5 -334 10
-409 96 -493 71 -70 156 -92 205 -54 36 29 167 196 167 214 0 24 -19 29 -45
12 -35 -23 -56 -20 -107 14 -54 36 -60 53 -82 241 -26 215 -30 304 -14 316 7
6 90 19 183 28 94 10 173 23 177 29 11 16 10 74 -1 81 -6 3 -73 0 -151 -6
-110 -10 -143 -10 -153 0 -8 8 -12 54 -12 144 0 121 3 137 28 196 30 71 35
121 13 121 -7 0 -20 -15 -27 -32z"/>
<path d="M9052 21722 l-62 -57 0 -80 0 -79 42 -43 c38 -38 47 -43 88 -43 41 0
50 5 93 48 46 47 47 49 47 112 l0 65 -66 68 c-36 37 -69 67 -73 67 -3 -1 -34
-26 -69 -58z"/>
<path d="M4940 21518 c-210 -106 -356 -235 -428 -378 -139 -279 -116 -529 64
-689 144 -127 271 -170 427 -144 32 5 41 12 59 47 11 23 44 75 73 116 l52 75
-106 1 c-86 0 -117 4 -164 23 -132 52 -233 147 -279 261 -32 78 -32 260 -1
339 78 194 197 203 349 25 l50 -60 98 93 98 93 -38 53 c-99 139 -139 187 -154
187 -9 0 -54 -19 -100 -42z"/>
<path d="M5775 21456 c-138 -44 -284 -165 -347 -290 -18 -35 -20 -52 -15 -121
8 -107 30 -178 63 -200 l26 -17 -66 -68 c-81 -83 -106 -134 -106 -215 0 -103
67 -207 176 -271 l42 -25 60 61 c40 39 83 71 124 89 105 48 105 48 113 -1 10
-58 42 -132 68 -156 l22 -20 143 130 c139 126 169 168 123 168 -11 0 -23 -4
-26 -10 -11 -17 -61 -11 -89 11 l-26 20 1 252 c0 139 4 286 8 327 l8 75 -81
115 c-78 110 -131 161 -165 159 -9 0 -34 -6 -56 -13z m-41 -218 c72 -82 87
-122 93 -243 l6 -104 -34 -20 c-107 -65 -165 -64 -240 6 -61 57 -83 112 -77
192 3 50 10 67 42 108 47 61 112 113 142 113 15 0 38 -18 68 -52z m97 -568 l1
-144 -51 -17 -51 -18 -71 41 c-138 80 -171 142 -111 208 l27 31 42 -17 c54
-21 94 -14 158 30 28 19 51 33 52 32 1 -1 3 -67 4 -146z"/>
<path d="M8519 21393 c-101 -73 -222 -177 -265 -226 -147 -167 -164 -415 -42
-597 72 -109 211 -195 333 -207 l50 -5 34 59 c19 32 62 99 96 148 68 100 77
118 69 140 -11 28 -43 16 -69 -25 -24 -38 -27 -40 -78 -40 -67 0 -178 51 -235
108 -98 98 -142 307 -83 391 35 48 84 61 239 61 109 0 142 3 160 16 23 16 62
83 62 106 -1 12 -180 118 -199 118 -5 0 -37 -21 -72 -47z"/>
<path d="M9128 21253 c-84 -69 -268 -247 -268 -259 0 -25 28 -27 66 -5 l36 22
62 -39 61 -39 5 -284 c4 -183 10 -291 17 -304 6 -11 41 -49 77 -84 l65 -64 43
37 c24 21 83 77 131 125 l88 86 -69 16 c-37 8 -82 26 -101 40 l-33 24 8 290 7
291 -58 87 c-65 98 -81 105 -137 60z"/>
<path d="M7751 20246 c-28 -44 -102 -112 -146 -133 -19 -9 -35 -20 -35 -24 0
-9 177 -158 196 -166 10 -4 204 185 212 207 1 4 -12 10 -29 14 -51 10 -117 53
-148 97 l-29 39 -21 -34z"/>
<path d="M7135 20123 c-8 -16 -35 -68 -60 -117 -62 -121 -146 -247 -207 -312
-47 -49 -50 -56 -40 -79 6 -14 29 -37 51 -52 l40 -28 1 -202 c0 -212 11 -331
37 -395 21 -52 86 -105 152 -125 76 -22 96 -12 145 70 23 38 74 110 114 160
64 80 71 92 58 105 -13 13 -18 13 -38 -2 -13 -9 -38 -28 -57 -41 -19 -14 -44
-25 -56 -25 -25 0 -99 51 -114 78 -25 47 -42 339 -21 372 6 10 45 20 117 30
l108 15 3 33 c5 53 -8 60 -119 64 -75 2 -102 7 -110 18 -11 16 -8 54 21 267
14 100 17 150 10 168 -12 32 -17 32 -35 -2z"/>
<path d="M5137 19909 c-133 -80 -201 -131 -272 -203 -191 -194 -259 -454 -174
-668 65 -165 242 -336 441 -424 26 -12 27 -11 84 83 31 53 85 133 119 178 82
107 88 120 70 135 -18 15 -44 6 -92 -31 -37 -30 -41 -31 -118 -27 -62 4 -93
11 -135 32 -84 43 -154 116 -120 128 5 2 131 102 279 223 l268 220 -19 25
c-10 14 -44 57 -73 95 -47 60 -121 194 -151 272 -9 21 -12 20 -107 -38z m25
-370 c25 -36 53 -71 62 -78 9 -8 16 -17 16 -22 0 -11 -123 -109 -253 -203
-123 -88 -112 -89 -164 14 -23 47 -28 67 -28 135 0 68 5 88 28 133 35 67 86
124 161 179 l59 44 36 -69 c20 -37 57 -97 83 -133z"/>
<path d="M8758 19901 c-120 -61 -291 -217 -302 -275 -4 -18 -2 -66 4 -107 12
-87 16 -102 37 -151 l16 -37 -35 -39 c-83 -91 -124 -204 -115 -311 10 -118 53
-205 125 -255 l42 -28 97 65 c110 73 173 106 251 131 l52 18 49 -44 c26 -23
82 -66 123 -95 l75 -52 39 40 c21 23 74 70 117 106 54 47 77 73 77 89 0 33
-18 39 -44 15 -34 -32 -97 -29 -135 7 l-29 27 -16 240 c-9 132 -16 278 -16
324 l0 84 -47 56 c-73 88 -175 191 -205 207 -42 22 -97 17 -160 -15z m-21
-227 c34 -20 81 -57 105 -81 l43 -44 0 -124 c0 -68 -3 -127 -7 -131 -11 -10
-127 15 -172 38 -121 62 -156 109 -156 211 0 49 5 63 47 130 30 48 59 48 140
1z m-72 -430 c51 -24 66 -26 136 -21 l78 5 -6 -83 c-3 -49 -1 -95 5 -113 l11
-31 -99 -30 c-54 -17 -102 -31 -107 -31 -11 0 -104 95 -127 130 -18 28 -21
101 -5 133 10 19 49 67 55 67 1 0 27 -12 59 -26z"/>
<path d="M5744 19770 c-65 -60 -122 -110 -126 -110 -5 0 17 -30 48 -67 100
-117 97 -103 102 -525 5 -423 -10 -378 130 -378 l82 0 0 404 0 404 56 51 c30
28 60 51 64 51 18 0 130 -72 139 -89 6 -10 13 -108 17 -217 6 -164 4 -218 -11
-308 -18 -119 -16 -165 16 -262 32 -100 35 -101 94 -53 28 23 100 79 161 125
61 45 114 89 117 98 10 24 -20 34 -70 23 -33 -7 -47 -6 -53 3 -4 6 -10 73 -14
148 -19 377 -35 579 -51 623 -19 55 -74 123 -117 145 -30 15 -31 15 -67 -19
-20 -19 -82 -68 -138 -110 l-102 -77 -24 29 c-13 16 -48 73 -76 125 -28 53
-54 96 -56 96 -2 0 -57 -49 -121 -110z"/>
<path d="M7855 19860 c-24 -10 -274 -240 -287 -265 -7 -11 -6 -21 1 -28 9 -9
22 -6 53 11 l41 22 81 -43 81 -43 5 -279 c4 -227 8 -284 20 -301 8 -12 44 -45
79 -75 l64 -54 104 110 c57 60 103 113 103 117 0 4 -15 10 -34 13 -23 5 -44
19 -65 45 l-31 39 0 251 0 252 -81 119 c-81 118 -92 127 -134 109z"/>
<path d="M12703 23534 l-63 -56 0 -86 0 -86 42 -43 c38 -39 47 -43 89 -43 42
0 53 5 98 46 l51 46 0 74 0 75 -66 62 c-37 34 -72 63 -78 64 -6 2 -39 -22 -73
-53z"/>
<path d="M12130 23403 c-19 -1 -84 -8 -144 -13 -185 -18 -237 -64 -98 -86 22
-3 51 -15 63 -27 33 -31 59 -97 59 -152 0 -84 -66 -310 -165 -568 -36 -92 -39
-96 -52 -77 -39 56 -209 435 -237 530 l-16 53 35 33 c19 18 52 38 72 44 79 25
108 66 63 90 -19 10 -773 90 -850 90 -39 0 -60 -14 -60 -41 0 -26 13 -31 106
-35 163 -7 199 -45 371 -389 151 -301 340 -745 390 -913 10 -34 21 -62 24 -62
17 0 291 785 413 1180 53 171 86 209 247 280 43 19 50 46 14 60 -24 9 -154 11
-235 3z"/>
<path d="M13763 23290 c-85 -152 -268 -348 -383 -410 -93 -51 -87 -68 45 -145
15 -9 19 -34 26 -185 12 -254 39 -470 75 -591 29 -99 106 -205 164 -227 50
-19 71 1 169 158 29 47 62 95 73 107 14 15 19 29 14 46 -8 33 -33 41 -63 21
-34 -22 -67 -11 -93 31 -15 25 -25 67 -35 152 -18 155 -37 470 -30 493 6 18
35 22 409 63 104 11 110 13 116 37 4 14 3 36 -1 48 -8 22 -12 22 -186 22 -98
0 -202 3 -230 6 -52 7 -53 8 -64 48 -17 63 -6 171 26 250 19 49 25 74 18 85
-17 26 -32 24 -50 -9z"/>
<path d="M12473 22934 c-84 -74 -153 -141 -153 -149 0 -21 43 -19 71 4 24 18
24 18 130 -42 l106 -61 6 -195 c4 -107 7 -241 7 -298 0 -124 17 -166 106 -262
l56 -61 88 0 89 0 90 118 c50 64 91 119 91 122 0 3 -31 14 -69 23 -74 19 -165
76 -195 121 -14 22 -16 64 -16 328 l0 303 -93 93 c-128 128 -119 129 -314 -44z"/>
<path d="M14729 22772 c-72 -30 -130 -74 -223 -173 -94 -100 -114 -142 -95
-197 6 -17 25 -41 42 -52 18 -11 38 -23 45 -28 9 -6 0 -27 -37 -83 -92 -139
-128 -279 -102 -386 24 -92 136 -284 176 -300 8 -2 41 16 75 42 74 57 207 128
278 149 49 14 53 14 58 -2 18 -57 42 -95 83 -136 l48 -47 121 133 121 133 -85
80 -84 80 1 200 c0 110 4 252 9 315 l9 115 -27 23 c-144 122 -309 176 -413
134z m37 -200 c149 -87 163 -112 164 -290 0 -102 0 -103 -22 -97 -57 16 -367
177 -403 208 l-40 35 20 38 c11 21 45 65 77 97 54 57 58 60 96 55 22 -3 71
-24 108 -46z m84 -423 l75 -27 0 -153 0 -152 -55 -12 c-30 -6 -73 -19 -94 -28
-39 -17 -39 -17 -68 10 -69 66 -128 198 -128 288 0 24 9 72 20 108 l20 66 78
-36 c42 -20 111 -48 152 -64z"/>
<path d="M11886 21616 c-9 -36 -61 -51 -127 -37 -114 25 -320 10 -498 -35
-133 -33 -193 -58 -287 -120 -153 -100 -283 -263 -318 -399 -42 -159 2 -414
90 -518 57 -68 235 -177 354 -217 142 -48 367 -46 598 6 151 34 162 31 177
-39 5 -24 10 -28 33 -25 l27 3 3 239 c2 251 0 266 -40 245 -12 -6 -18 -21 -18
-43 0 -50 -54 -148 -111 -201 -178 -167 -473 -143 -668 54 -133 134 -192 293
-118 317 36 11 162 5 322 -16 83 -10 204 -24 270 -30 184 -17 257 -28 297 -46
65 -29 68 -24 68 146 0 169 -3 175 -65 146 -112 -53 -662 -128 -815 -111 -80
9 -89 13 -106 48 -34 66 4 198 84 288 184 207 529 238 727 66 57 -49 109 -140
115 -200 6 -60 32 -84 56 -52 12 16 14 65 12 285 l-3 265 -26 3 c-21 2 -28 -2
-33 -22z"/>
<path d="M12980 21504 c-25 -26 -83 -79 -128 -120 l-84 -74 -31 47 c-38 56
-107 107 -178 132 l-52 19 -86 -68 c-47 -38 -138 -102 -201 -144 -63 -42 -121
-81 -127 -86 -17 -15 -16 -45 2 -60 16 -13 23 -10 169 74 77 44 79 45 110 29
130 -65 199 -194 199 -373 1 -52 -5 -122 -12 -155 -30 -140 -107 -292 -194
-384 -37 -38 -39 -42 -17 -36 53 15 127 54 166 89 23 20 75 84 115 143 41 59
77 112 81 118 5 6 14 0 25 -15 32 -48 177 -190 229 -226 51 -35 54 -36 77 -21
25 16 270 271 275 286 1 4 -17 13 -40 20 -112 34 -299 150 -373 233 -79 88
-106 208 -65 288 l20 39 36 -24 c69 -47 142 -69 234 -69 96 0 136 13 194 64
65 58 65 67 -1 96 -85 38 -216 128 -260 179 l-39 45 -44 -46z"/>
<path d="M13936 21275 c-203 -122 -334 -240 -390 -351 -35 -69 -51 -215 -36
-321 14 -101 50 -178 135 -283 99 -125 142 -166 196 -190 58 -24 154 -36 189
-22 52 20 397 343 386 361 -12 19 -37 12 -72 -18 -40 -35 -100 -45 -237 -39
-81 3 -100 8 -154 37 -86 46 -175 136 -215 219 -29 58 -33 77 -33 142 1 110
38 184 137 268 l38 34 69 -65 c39 -36 86 -70 106 -77 51 -17 148 -8 212 20 96
41 97 37 -72 202 l-151 148 -108 -65z"/>
<path d="M14971 21190 c-106 -52 -161 -89 -243 -168 -120 -115 -185 -239 -214
-404 -13 -75 -14 -106 -5 -166 37 -250 213 -460 413 -491 l53 -9 96 88 c53 48
127 111 163 140 61 48 72 62 116 154 27 55 61 142 75 191 23 77 26 103 22 175
-6 97 -40 203 -93 290 -59 99 -186 205 -279 234 -14 4 -50 -8 -104 -34z m3
-247 c87 -52 181 -149 213 -219 24 -52 26 -70 25 -164 -1 -121 -24 -226 -71
-316 -53 -106 -46 -104 -136 -36 -100 74 -217 196 -250 262 -88 173 -65 376
53 480 56 50 73 49 166 -7z"/>
<path d="M15597 20733 c-20 -23 -22 -56 -4 -71 15 -13 166 -42 217 -42 45 0
58 22 39 64 -14 30 -73 51 -174 62 -52 5 -63 3 -78 -13z"/>
<path d="M15590 20540 c-46 -46 -13 -74 108 -95 120 -21 146 -18 150 16 5 43
-25 66 -110 83 -101 21 -124 20 -148 -4z"/>
<path d="M10727 19853 c6 -159 14 -459 18 -668 4 -209 11 -395 17 -413 11 -36
80 -109 150 -159 l46 -33 76 99 c43 55 104 124 137 155 32 31 59 62 59 70 0
18 -20 25 -45 15 -29 -11 -103 -11 -126 1 -49 27 -49 29 -49 645 l0 575 -147
0 -148 0 12 -287z"/>
<path d="M12884 20063 c-66 -105 -221 -246 -331 -302 -28 -14 -43 -28 -43 -40
0 -22 48 -66 96 -89 l32 -15 -1 -351 c-2 -401 1 -425 73 -490 60 -54 98 -70
167 -70 54 -1 66 3 100 30 55 44 192 206 192 227 1 28 -25 31 -62 8 -42 -26
-99 -27 -153 -2 -33 15 -42 25 -48 52 -10 51 -20 519 -12 562 l7 37 105 0
c101 0 105 1 115 24 7 14 9 35 5 49 -5 22 -13 25 -73 31 -38 4 -85 11 -107 17
l-39 10 5 102 c4 68 13 124 28 169 19 55 20 70 10 83 -20 24 -27 19 -66 -42z"/>
<path d="M11843 19875 c-102 -51 -305 -272 -323 -352 -14 -60 18 -208 49 -227
7 -4 -10 -34 -45 -79 -30 -40 -72 -106 -92 -147 -33 -66 -37 -84 -37 -150 0
-47 8 -98 20 -135 19 -59 90 -175 111 -182 6 -2 53 33 105 78 111 95 190 151
262 184 l52 24 14 -27 c7 -15 21 -35 30 -46 19 -21 126 -96 138 -96 5 0 38 35
73 77 36 43 100 117 143 166 42 49 77 95 77 103 0 19 -32 18 -67 -3 -41 -23
-75 -11 -135 45 l-50 46 3 274 3 273 -73 80 c-111 121 -164 141 -258 94z m-32
-224 c109 -70 128 -112 129 -283 0 -97 0 -98 -26 -104 -53 -13 -159 2 -212 31
-89 48 -97 62 -97 169 0 84 2 96 28 135 30 45 80 81 113 81 11 0 40 -13 65
-29z m-31 -466 c19 1 63 4 98 9 l62 8 0 -95 0 -96 -57 -34 c-32 -19 -79 -45
-104 -58 l-47 -22 -31 22 c-66 47 -81 135 -40 231 21 49 23 51 53 43 17 -4 47
-8 66 -8z"/>
<path d="M13455 19678 c-105 -89 -205 -180 -205 -189 0 -5 14 -9 32 -9 49 0
114 -37 140 -78 22 -36 23 -43 23 -312 1 -273 1 -276 25 -319 14 -24 55 -71
91 -103 l67 -59 98 37 c77 28 239 102 336 152 5 2 11 -5 14 -15 20 -62 44
-100 92 -144 80 -73 85 -73 186 11 47 40 86 74 86 75 0 2 -13 17 -29 33 -52
51 -56 87 -53 416 l2 299 -41 53 c-46 60 -184 194 -199 194 -6 0 -67 -55 -136
-122 l-126 -123 63 -7 c82 -9 146 -34 165 -63 13 -19 16 -63 16 -234 1 -236
-2 -250 -70 -278 -80 -33 -272 -2 -334 54 -22 20 -24 110 -7 380 l12 182 -32
50 c-30 47 -143 161 -159 161 -4 0 -29 -19 -57 -42z"/>
<path d="M14813 19514 c-37 -30 -112 -90 -165 -132 -88 -70 -95 -77 -70 -79
61 -6 140 -27 183 -49 81 -41 78 -24 81 -456 l3 -383 126 -3 126 -3 6 68 c4
37 7 217 7 398 l0 330 48 26 47 26 97 -93 c54 -51 106 -98 117 -104 17 -9 35
3 128 84 130 113 146 129 141 153 -4 20 -45 30 -61 14 -7 -7 -31 9 -76 49 -36
33 -93 79 -125 103 l-59 44 -56 -42 c-31 -23 -85 -61 -120 -84 l-64 -41 -104
105 c-57 57 -112 109 -123 115 -15 8 -30 1 -87 -46z"/>
<path d="M9944 16460 c-79 -20 -167 -62 -231 -109 -33 -24 -43 -38 -43 -60 0
-69 85 -75 212 -14 l83 40 -27 -55 c-48 -94 -34 -196 36 -279 17 -20 23 -33
14 -33 -22 0 -151 36 -192 54 -47 19 -46 19 -46 2 0 -30 52 -74 132 -112 82
-38 85 -39 198 -39 157 0 219 22 484 175 114 66 225 115 282 126 48 9 42 20
-18 34 -85 20 -142 46 -338 150 -102 54 -216 108 -254 119 -86 26 -195 27
-292 1z m361 -144 c58 -26 236 -124 270 -149 18 -14 7 -21 -153 -101 -94 -47
-174 -86 -177 -86 -2 0 13 28 35 61 22 34 42 76 46 94 8 46 -11 107 -51 160
-19 25 -33 45 -30 45 2 0 29 -11 60 -24z"/>
</g>
</svg>
