<?xml version="1.0" encoding="UTF-8" standalone="no"?>
<!-- Created with Inkscape (http://www.inkscape.org/) -->

<svg
   width="210mm"
   height="297mm"
   viewBox="0 0 210 297"
   version="1.1"
   id="svg1041"
   inkscape:version="1.1 (c4e8f9e, 2021-05-24)"
   sodipodi:docname="favicon.svg"
   xmlns:inkscape="http://www.inkscape.org/namespaces/inkscape"
   xmlns:sodipodi="http://sodipodi.sourceforge.net/DTD/sodipodi-0.dtd"
   xmlns="http://www.w3.org/2000/svg"
   xmlns:svg="http://www.w3.org/2000/svg">
  <sodipodi:namedview
     id="namedview1043"
     pagecolor="#ffffff"
     bordercolor="#666666"
     borderopacity="1.0"
     inkscape:pageshadow="2"
     inkscape:pageopacity="0.0"
     inkscape:pagecheckerboard="0"
     inkscape:document-units="mm"
     showgrid="false"
     inkscape:zoom="0.20541164"
     inkscape:cx="-1647.9105"
     inkscape:cy="-233.67712"
     inkscape:window-width="1920"
     inkscape:window-height="1080"
     inkscape:window-x="0"
     inkscape:window-y="0"
     inkscape:window-maximized="0"
     inkscape:current-layer="layer1" />
  <defs
     id="defs1038">
    <rect
       x="110.29437"
       y="107.23063"
       width="744.48698"
       height="1133.581"
       id="rect46999" />
    <rect
       x="518.99059"
       y="392.38707"
       width="713.23949"
       height="1102.9351"
       id="rect15116" />
    <rect
       x="272.00296"
       y="351.168"
       width="213.13665"
       height="422.21355"
       id="rect5218" />
  </defs>
  <g
     inkscape:label="Layer 1"
     inkscape:groupmode="layer"
     id="layer1">
    <g
       id="g49051"
       transform="translate(24.473216,37.353856)">
      <text
         xml:space="preserve"
         transform="matrix(0.26458333,0,0,0.26458333,-87.460521,-75.418035)"
         id="text15114"
         style="font-style:normal;font-variant:normal;font-weight:normal;font-stretch:normal;font-size:533.333px;line-height:1.25;font-family:Charter;-inkscape-font-specification:'Charter, Normal';font-variant-ligatures:normal;font-variant-caps:normal;font-variant-numeric:normal;font-variant-east-asian:normal;white-space:pre;shape-inside:url(#rect15116)"><tspan
           x="518.99023"
           y="887.38442"
           id="tspan49096">E</tspan></text>
      <path
         id="text46997"
         style="font-style:normal;font-variant:normal;font-weight:normal;font-stretch:normal;font-size:533.333px;line-height:1.25;font-family:Charter;-inkscape-font-specification:'Charter, Normal';font-variant-ligatures:normal;font-variant-caps:normal;font-variant-numeric:normal;font-variant-east-asian:normal;white-space:pre;shape-inside:url(#rect46999)"
         transform="scale(0.26458333)"
         d="m 118.88867,244.41602 v 82.03125 h 29.16602 l 7.55273,-49.47852 7.55274,-8.07422 h 81.50976 v 301.30274 l -9.11523,7.55273 -35.67578,2.60352 v 21.875 h 139.32226 v -21.875 l -35.9375,-2.60352 -8.85351,-7.55273 V 268.89453 h 72.71875 c 1.35187,-0.34159 2.88116,-0.54268 4.61328,-0.54297 1.47336,-2.4e-4 2.94655,9.4e-4 4.41992,0.002 1.20586,0.01 2.41129,-0.0216 3.61719,-0.002 0.45184,0.002 4.48751,-0.0285 4.49023,0.0156 0.0531,0.85405 0.0892,1.5341 0.13477,2.3125 0.0591,-0.79818 0.133,-1.58579 0.22461,-2.35157 0.0426,-0.35608 0.44921,-0.29827 0.90429,-0.18359 0.10884,-0.24337 0.20021,-0.23516 0.25977,0.0664 0.26236,0.0705 0.52177,0.13806 0.72461,0.14062 3.7025,0.0472 5.53817,0.0763 9.47851,0.10156 1.08514,0.007 2.26549,-0.44195 3.25391,0.006 0.40626,0.18406 -0.52628,0.77158 -0.55273,1.2168 -0.004,0.0674 -0.01,0.12092 -0.0137,0.1875 1.56105,-0.60053 3.24362,-1.11075 4.53907,-1.91016 1.68211,0.63544 4.52917,0.20282 5.10742,1.85157 0.46949,0.0611 0.93986,0.11437 1.41211,0.14453 3.47496,0.22186 6.96446,0.0569 10.44922,0.004 v -25.5371 z m 285.96094,24.47265 c -0.0185,0.007 0.0409,0.29462 0.13281,0.31445 0.0123,0.003 0.0248,0.005 0.0371,0.008 -0.0545,-0.1088 -0.10291,-0.19499 -0.1582,-0.30664 -0.006,-0.012 -0.009,-0.0166 -0.0117,-0.0156 z" />
    </g>
  </g>
</svg>
